<?xml version="1.0" standalone="no"?>
<!DOCTYPE svg PUBLIC "-//W3C//DTD SVG 20010904//EN"
 "http://www.w3.org/TR/2001/REC-SVG-20010904/DTD/svg10.dtd">
<svg version="1.0" xmlns="http://www.w3.org/2000/svg"
 viewBox="0 870 1880 1200"
 preserveAspectRatio="xMidYMid meet">

<g transform="translate(0.000000,2048.000000) scale(0.100000,-0.100000)"
fill="#000000" stroke="none">
<path d="M9989 11536 c-132 -46 -258 -147 -323 -259 -32 -55 -65 -152 -71
-208 -3 -40 -3 -42 11 -25 8 11 14 26 14 34 0 7 5 10 10 7 6 -3 10 -1 10 6 0
7 16 36 35 65 19 29 35 58 35 64 0 7 6 10 14 7 10 -4 12 0 8 15 -4 17 -2 20
11 15 9 -3 19 -1 23 5 4 7 3 8 -4 4 -7 -4 -12 -2 -12 4 0 17 123 136 160 155
18 9 28 20 24 27 -5 8 -2 9 9 5 10 -4 17 -1 17 6 0 7 14 18 32 26 17 8 39 22
50 33 10 10 23 16 28 13 6 -4 10 -2 10 4 0 5 8 12 18 14 9 3 4 5 -13 5 -16 1
-60 -10 -96 -22z"/>
<path d="M9633 11398 c-67 -69 -119 -179 -137 -288 -4 -26 -4 -30 3 -15 l10
20 1 -20 c0 -11 16 17 34 61 34 87 78 161 122 207 27 29 26 50 -1 27 -14 -11
-14 -10 -6 14 6 14 9 26 8 26 -2 0 -17 -15 -34 -32z"/>
<path d="M3746 11254 c-59 -18 -118 -31 -130 -28 -30 7 -33 -32 -3 -48 32 -16
62 -54 99 -123 l33 -60 -3 -665 c-3 -706 -5 -775 -28 -784 -8 -3 -14 -12 -14
-20 0 -8 -19 -31 -42 -52 -24 -21 -31 -30 -16 -21 15 9 31 17 35 17 4 0 -9
-11 -30 -24 -33 -20 -36 -25 -20 -31 10 -4 131 -9 268 -11 166 -2 236 0 208 6
-73 15 -172 68 -193 103 -26 41 -29 76 -34 307 -2 107 -5 196 -5 198 -4 12
-20 -13 -26 -40 -6 -29 -8 -31 -15 -13 l-9 20 0 -20 c-1 -15 -3 -17 -10 -6 -5
7 -6 22 -4 32 3 10 1 19 -5 19 -6 0 -13 -8 -15 -17 -3 -10 -6 63 -7 162 -1 99
-5 347 -9 550 -8 415 -11 434 -79 480 l-35 24 84 25 c46 14 99 28 117 32 33 7
45 25 15 23 -10 0 -67 -16 -127 -35z m41 -1316 c-3 -8 -6 -5 -6 6 -1 11 2 17
5 13 3 -3 4 -12 1 -19z"/>
<path d="M17505 11260 c-3 -5 -3 -10 1 -10 4 0 0 -6 -10 -13 -15 -11 -57 -121
-143 -376 -13 -41 -38 -107 -54 -148 -16 -40 -28 -77 -27 -81 1 -4 -4 -18 -11
-31 -8 -14 -9 -21 -2 -17 6 4 11 0 11 -9 0 -37 27 -4 52 66 15 41 69 191 121
334 52 143 98 268 102 278 5 13 2 17 -13 17 -12 0 -24 -4 -27 -10z"/>
<path d="M17600 11261 c0 -6 3 -10 8 -10 18 3 22 -2 12 -20 -9 -18 35 -156
113 -356 19 -48 168 -447 209 -560 106 -292 119 -335 109 -352 -9 -15 -10 -13
-11 15 0 26 -4 32 -17 30 -10 -2 -24 -14 -31 -28 l-13 -25 6 27 c3 15 0 30 -6
34 -11 7 -9 -33 6 -101 5 -22 4 -26 -4 -15 -5 8 -7 18 -5 22 3 4 1 8 -4 8 -4
0 -19 26 -32 58 -13 31 -30 72 -37 91 -13 30 -15 32 -27 16 -18 -25 -155 -35
-443 -32 -205 2 -244 0 -256 -13 -13 -13 -127 -299 -156 -391 -15 -45 -18
-117 -8 -145 7 -19 3 -22 -30 -28 -35 -5 -186 -66 -200 -80 -8 -8 43 -10 217
-6 154 2 196 11 148 29 -35 13 -80 64 -95 108 -15 43 10 143 101 393 9 25 25
51 36 58 25 15 523 26 550 12 27 -15 98 -181 128 -299 15 -61 31 -111 35 -111
5 0 6 8 3 18 -5 14 0 18 21 20 14 1 29 4 31 7 7 7 -62 214 -102 308 -19 42
-30 77 -26 77 16 0 135 -312 154 -405 12 -56 13 -58 20 -29 9 38 42 52 52 22
9 -31 -5 -104 -24 -122 -33 -29 -154 -78 -165 -67 -6 6 -9 12 -6 13 2 2 22 12
44 23 47 23 57 60 19 68 -16 3 -35 -8 -68 -38 -25 -23 -46 -44 -46 -48 0 -3
10 -7 23 -9 12 -2 21 -8 20 -14 -2 -13 1177 -8 1191 6 8 8 -28 49 -45 50 -3 0
-16 19 -29 43 -24 41 -24 47 -27 322 -1 154 -5 323 -7 375 -3 52 -8 246 -11
430 -4 267 -3 340 8 360 7 14 23 51 36 83 17 42 37 70 72 99 27 23 47 43 44
46 -2 2 -22 -3 -45 -12 -28 -11 -77 -17 -158 -18 l-117 -2 103 -3 104 -4 -25
-20 c-14 -11 -36 -45 -47 -77 -20 -51 -23 -81 -26 -302 -7 -413 -14 -529 -30
-523 -9 3 -14 -2 -14 -17 0 -16 -4 -20 -16 -16 -9 3 -18 6 -20 6 -2 0 -4 8 -4
17 0 9 -2 14 -5 11 -10 -10 -17 -122 -23 -419 -6 -270 -9 -308 -25 -332 -23
-36 -61 -58 -146 -87 -63 -22 -73 -23 -126 -11 -88 20 -168 103 -214 225 -114
295 -207 541 -222 586 -11 30 -26 69 -33 85 -8 17 -19 48 -26 70 -7 22 -18 54
-26 70 -7 17 -31 84 -54 150 -23 66 -47 134 -54 150 -7 17 -34 91 -61 165 -26
74 -51 144 -55 155 -68 175 -76 190 -98 193 -12 2 -22 -1 -22 -7z m1220 -1062
c0 -6 -4 -7 -10 -4 -5 3 -10 11 -10 16 0 6 5 7 10 4 6 -3 10 -11 10 -16z
m-740 -274 c0 -5 -5 -3 -10 5 -5 8 -10 20 -10 25 0 6 5 3 10 -5 5 -8 10 -19
10 -25z m-83 -67 c-3 -8 -6 -5 -6 6 -1 11 2 17 5 13 3 -3 4 -12 1 -19z m-7
-141 c0 -18 -2 -19 -10 -7 -13 20 -13 43 0 35 6 -3 10 -16 10 -28z"/>
<path d="M2675 11231 c-314 -52 -488 -231 -559 -576 -25 -120 -29 -214 -11
-241 8 -13 15 -34 16 -46 1 -49 16 16 23 99 16 204 117 456 229 574 41 44 106
93 112 87 3 -3 -15 -21 -39 -40 -117 -91 -217 -274 -250 -460 -7 -36 -6 -38
19 -38 37 0 51 18 69 91 36 140 72 213 177 358 23 31 27 42 15 38 -11 -4 -15
-3 -11 4 4 6 13 8 20 5 7 -2 45 11 84 30 102 49 185 66 308 62 57 -2 103 -7
103 -11 0 -5 4 -6 9 -3 21 13 149 -65 208 -127 60 -62 124 -170 137 -232 8
-39 42 -95 57 -95 15 0 2 70 -17 91 -8 9 -24 49 -35 89 -26 94 -38 116 -98
182 -59 64 -154 118 -251 141 -79 20 -247 29 -315 18z"/>
<path d="M2451 11195 c-185 -63 -302 -142 -397 -271 -60 -82 -130 -219 -140
-274 -5 -34 -5 -34 12 -15 l17 20 -7 -20 c-4 -11 -16 -83 -27 -160 -11 -77
-27 -162 -36 -189 -37 -112 14 -334 113 -492 141 -224 308 -347 548 -401 101
-23 126 -24 281 -20 154 4 180 7 280 36 189 54 323 110 317 132 -1 6 6 13 17
16 12 3 21 17 24 41 58 360 57 355 21 350 -23 -3 -29 -10 -39 -53 -7 -27 -15
-61 -18 -75 -4 -23 -4 -22 -6 5 l-2 30 -14 -34 c-8 -18 -15 -48 -15 -65 0 -38
-27 -147 -40 -160 -5 -5 -3 15 5 45 25 93 18 112 -15 44 -56 -112 -180 -201
-360 -257 -97 -30 -279 -32 -380 -4 -272 75 -421 249 -504 589 -15 58 -27 116
-28 130 -1 14 -6 23 -10 21 -5 -3 -14 9 -20 27 -11 31 -11 31 -23 9 -12 -22
-12 -22 -17 -2 -3 12 -1 23 6 26 6 2 -6 5 -26 5 l-38 1 0 113 c0 172 27 290
97 431 46 91 95 156 179 237 105 99 187 151 314 195 36 13 58 23 50 23 -8 0
-62 -15 -119 -34z m956 -1452 c-3 -10 -5 -2 -5 17 0 19 2 27 5 18 2 -10 2 -26
0 -35z m-10 -75 c-3 -7 -5 -2 -5 12 0 14 2 19 5 13 2 -7 2 -19 0 -25z"/>
<path d="M6530 11208 c-14 -15 -19 -30 -15 -43 4 -11 7 -25 7 -32 2 -17 18 -5
18 13 0 8 12 27 26 41 20 20 23 28 12 34 -19 13 -25 11 -48 -13z"/>
<path d="M11770 11223 c-155 -26 -281 -135 -295 -255 -4 -31 -3 -32 10 -14 9
11 12 29 9 39 -3 11 -2 17 3 14 5 -3 19 17 32 44 18 40 35 59 83 90 34 21 77
44 97 49 124 36 270 15 363 -50 31 -22 61 -40 67 -40 24 0 102 -106 132 -180
18 -44 35 -78 37 -75 7 7 -40 149 -64 191 -78 137 -286 219 -474 187z"/>
<path d="M18550 11216 c0 -7 10 -21 23 -31 21 -16 21 -16 -6 0 -15 9 -42 15
-60 13 l-32 -3 32 -29 c17 -15 39 -43 48 -62 14 -30 21 -34 54 -34 21 0 41 3
44 6 8 8 -8 41 -37 74 -16 19 -13 18 12 -5 18 -16 40 -51 50 -77 22 -64 42
-63 42 1 0 41 -5 53 -31 79 -16 16 -47 38 -67 48 -20 11 -38 22 -40 27 -6 13
-32 8 -32 -7z"/>
<path d="M6767 11174 c9 -15 19 -21 21 -15 4 13 -16 41 -29 41 -5 0 -2 -12 8
-26z"/>
<path d="M3177 11161 c34 -16 72 -32 85 -35 13 -3 -4 7 -38 23 -33 16 -72 32
-85 35 -13 4 4 -7 38 -23z"/>
<path d="M9700 11179 c0 -5 5 -7 10 -4 6 3 10 8 10 11 0 2 -4 4 -10 4 -5 0
-10 -5 -10 -11z"/>
<path d="M11873 11183 c9 -2 25 -2 35 0 9 3 1 5 -18 5 -19 0 -27 -2 -17 -5z"/>
<path d="M12267 11152 c6 -4 13 -28 15 -52 l3 -45 5 53 c5 47 3 52 -15 52 -13
0 -16 -3 -8 -8z"/>
<path d="M3300 11140 c8 -5 24 -10 34 -10 26 0 18 6 -19 14 -22 5 -26 4 -15
-4z"/>
<path d="M6519 11061 c-11 -39 -11 -43 12 -67 40 -43 76 -57 128 -49 71 10
111 34 128 73 28 68 -7 82 -68 27 -23 -21 -49 -35 -65 -35 -37 0 -82 27 -104
62 l-18 31 -13 -42z"/>
<path d="M12170 11048 c17 -27 33 -48 36 -48 8 0 -13 33 -41 65 -22 25 -22 23
5 -17z"/>
<path d="M12281 11034 c0 -11 3 -14 6 -6 3 7 2 16 -1 19 -3 4 -6 -2 -5 -13z"/>
<path d="M14849 11013 c-9 -10 -32 -43 -51 -73 -19 -30 -56 -77 -82 -105 -80
-85 -83 -91 -17 -35 91 78 179 192 169 221 -2 6 -11 2 -19 -8z"/>
<path d="M12891 11002 c-5 -9 -17 -53 -26 -97 -18 -88 -13 -209 8 -202 8 2 14
51 17 148 3 79 9 150 13 157 5 6 6 12 3 12 -3 0 -10 -8 -15 -18z"/>
<path d="M14889 10948 c-15 -50 -23 -100 -23 -158 -1 -79 1 -85 19 -85 19 0
20 7 20 120 0 66 4 137 9 158 14 63 -2 41 -25 -35z"/>
<path d="M6800 10995 c-17 -20 -61 -43 -114 -60 l-41 -13 43 -1 c23 -1 57 5
75 13 42 17 74 53 60 67 -7 7 -14 5 -23 -6z"/>
<path d="M12809 10913 c-50 -70 -55 -81 -25 -53 24 21 73 100 63 100 -2 0 -19
-21 -38 -47z"/>
<path d="M17486 10898 c-19 -30 -44 -93 -131 -338 -40 -113 -94 -259 -119
-324 -36 -92 -44 -121 -34 -127 7 -5 14 -4 16 1 2 5 10 6 18 3 8 -3 14 -1 14
5 0 6 -5 12 -11 14 -12 4 2 48 116 363 89 244 92 251 115 252 20 2 19 3 74
-152 19 -55 62 -174 96 -263 33 -90 60 -171 60 -179 0 -12 8 -14 36 -10 20 3
38 8 41 11 8 8 -208 594 -238 645 -11 18 -17 36 -14 40 10 9 42 -39 54 -81 7
-21 21 -57 32 -80 15 -34 19 -37 16 -15 -9 65 36 3 77 -107 30 -79 36 -147 11
-126 -8 7 -15 10 -15 7 0 -10 97 -273 110 -297 8 -15 15 -20 18 -12 2 6 14 12
27 12 l23 0 -18 58 c-10 31 -37 107 -60 167 -99 259 -142 374 -164 436 -35 98
-43 108 -83 102 -21 -4 -33 -2 -33 6 0 19 -19 12 -34 -11z"/>
<path d="M3276 10897 c3 -10 9 -15 12 -12 3 3 0 11 -7 18 -10 9 -11 8 -5 -6z"/>
<path d="M7270 10868 c-49 -59 -61 -82 -14 -29 37 42 59 71 52 71 -2 0 -19
-19 -38 -42z"/>
<path d="M9492 10864 c-17 -18 -15 -43 9 -143 27 -114 46 -153 70 -146 9 3 21
0 26 -7 4 -7 18 -22 31 -32 18 -16 15 -4 -19 65 -23 46 -56 127 -73 180 -25
76 -34 93 -44 83z"/>
<path d="M3291 10865 c0 -5 6 -21 14 -35 8 -14 14 -20 14 -15 0 6 -6 21 -14
35 -8 14 -14 21 -14 15z"/>
<path d="M12304 10798 c3 -13 6 -29 6 -35 0 -7 7 -13 15 -13 20 0 19 34 -1 54
-21 22 -27 20 -20 -6z"/>
<path d="M11491 10794 c0 -11 3 -14 6 -6 3 7 2 16 -1 19 -3 4 -6 -2 -5 -13z"/>
<path d="M6760 10699 c0 -5 5 -7 10 -4 6 3 10 8 10 11 0 2 -4 4 -10 4 -5 0
-10 -5 -10 -11z"/>
<path d="M5711 10674 c-29 -14 -85 -36 -125 -49 -39 -14 -64 -25 -56 -25 40 0
240 79 240 96 0 6 1 6 -59 -22z"/>
<path d="M5786 10683 c-6 -14 -5 -15 5 -6 7 7 10 15 7 18 -3 3 -9 -2 -12 -12z"/>
<path d="M15872 10690 c-119 -18 -221 -99 -282 -223 -39 -81 -57 -168 -41
-203 9 -20 8 -28 -3 -39 -23 -23 -29 -89 -16 -187 29 -221 116 -386 241 -452
l54 -29 -43 38 c-47 41 -50 59 -5 30 19 -12 12 -1 -22 36 -75 80 -140 185
-164 263 -25 82 -29 202 -6 232 8 10 15 15 15 10 0 -5 7 -3 15 4 11 10 90 13
318 13 168 0 271 3 232 7 -64 6 -59 7 55 9 69 1 133 4 143 6 9 2 17 -1 17 -6
0 -5 -33 -10 -72 -10 l-73 -2 71 -9 c109 -13 138 4 114 66 -5 14 -14 65 -21
113 -7 59 -20 104 -37 136 -27 50 -123 146 -148 148 -22 2 -28 4 -52 18 -38
20 -36 5 1 -18 80 -49 156 -156 181 -256 26 -99 24 -105 -34 -105 -36 0 -59
-6 -80 -22 -17 -12 -54 -25 -87 -29 -71 -10 -499 -13 -536 -4 -23 6 -25 11
-21 38 17 101 37 177 50 187 7 7 14 18 14 25 0 7 8 19 17 26 13 11 15 11 9 1
-4 -7 16 5 46 27 75 58 161 101 201 103 18 1 49 -7 68 -16 19 -10 43 -19 53
-22 23 -4 36 -22 30 -39 -3 -7 6 -36 20 -66 13 -30 25 -46 25 -36 1 14 6 17
22 12 18 -6 20 -4 14 17 -27 87 -106 162 -185 174 -25 4 -39 9 -32 12 32 10
113 -21 153 -60 44 -43 96 -141 105 -200 8 -48 20 -49 28 -2 14 71 -18 147
-87 212 -73 67 -154 89 -265 72z m339 -67 c13 -16 12 -17 -3 -4 -17 13 -22 21
-14 21 2 0 10 -8 17 -17z m-471 -36 c0 -2 -10 -12 -22 -23 l-23 -19 19 23 c18
21 26 27 26 19z"/>
<path d="M5036 10656 c23 -19 58 -60 79 -91 38 -54 55 -68 55 -42 0 15 -99
118 -142 147 -26 17 -24 14 8 -14z"/>
<path d="M6075 10681 c-11 -5 -23 -7 -27 -4 -9 5 -107 -93 -138 -138 -23 -32
-21 -31 26 11 101 91 122 108 150 124 30 16 23 20 -11 7z"/>
<path d="M8333 10659 c-60 -29 -73 -43 -78 -86 -5 -35 11 -36 25 -3 12 29 49
67 100 102 36 24 23 21 -47 -13z"/>
<path d="M4592 10664 c-107 -28 -203 -116 -251 -227 -21 -49 -49 -68 -31 -22
32 85 80 150 144 196 21 16 34 29 29 29 -6 0 -38 -20 -71 -44 -66 -49 -110
-112 -119 -173 -3 -21 -12 -46 -20 -55 -13 -14 -12 -18 6 -27 30 -17 38 -14
44 17 6 27 76 146 83 140 1 -2 -13 -34 -32 -72 -40 -81 -44 -109 -12 -104 16
2 32 23 60 80 45 91 100 148 186 190 78 39 132 41 192 7 34 -19 52 -40 87
-103 54 -99 64 -138 62 -235 -2 -79 3 -101 23 -101 20 0 2 254 -23 335 -28 93
-91 157 -168 174 -68 14 -124 13 -189 -5z m-72 -75 c-14 -11 -33 -24 -44 -30
-32 -19 -7 11 28 32 40 25 48 24 16 -2z"/>
<path d="M6260 10648 c-11 -18 -27 -54 -36 -80 l-15 -47 -46 25 c-59 31 -134
33 -183 3 -19 -12 -62 -49 -95 -83 -33 -33 -71 -68 -85 -77 l-23 -16 -4 -350
c-3 -292 -2 -356 11 -384 13 -31 14 -4 15 286 1 304 3 323 24 383 24 68 76
141 120 167 44 27 42 11 -3 -19 -53 -35 -91 -95 -98 -152 l-5 -46 27 23 c14
12 26 26 26 31 0 20 51 115 72 135 39 37 102 54 155 43 25 -6 59 -18 75 -26
33 -17 48 -8 48 28 0 9 12 48 26 85 14 37 28 76 31 86 9 29 -16 19 -37 -15z
m-243 -154 c-3 -3 -12 -4 -19 -1 -8 3 -5 6 6 6 11 1 17 -2 13 -5z"/>
<path d="M7762 10668 c-2 -16 -19 -18 -194 -18 -106 0 -199 -4 -207 -9 -8 -5
-13 -21 -11 -37 1 -16 3 -222 4 -459 1 -383 3 -434 18 -470 l18 -40 -5 65 c-3
36 -6 243 -8 460 -2 338 0 399 13 418 15 22 20 23 192 25 97 1 179 5 183 9 3
3 5 21 2 40 -2 18 -5 25 -5 16z"/>
<path d="M7820 10671 c0 -12 22 -29 74 -55 52 -26 56 -24 24 13 l-23 24 22
-15 c37 -24 84 -89 116 -158 30 -66 126 -298 157 -380 9 -25 22 -56 27 -70 6
-14 21 -50 32 -80 12 -30 26 -64 31 -75 15 -35 157 -399 168 -430 5 -16 14
-29 20 -28 40 9 -74 -271 -157 -385 -45 -61 -127 -110 -198 -120 -96 -12 -111
-7 -124 41 -7 23 -16 47 -21 52 -6 7 -9 7 -7 0 6 -21 -12 -112 -26 -132 -13
-18 -12 -22 6 -39 30 -27 147 -25 209 3 155 71 256 231 395 633 13 36 44 114
70 174 26 60 96 240 156 400 60 160 121 321 135 358 24 62 91 176 132 222 10
10 33 26 52 37 55 29 7 23 -56 -7 -30 -14 -67 -41 -82 -60 -28 -35 -42 -43
-42 -22 0 30 -66 98 -95 98 -2 0 12 -26 31 -57 19 -31 34 -60 34 -65 0 -4 6
-7 13 -5 24 4 18 -53 -14 -140 -62 -171 -251 -659 -270 -694 -10 -20 -35 -52
-56 -70 -21 -19 -45 -47 -53 -62 -10 -19 -16 -24 -21 -15 -8 15 -173 401 -210
491 -13 32 -25 54 -27 48 -6 -18 -21 -3 -37 36 -16 37 -12 59 5 33 19 -30 9 3
-39 122 -106 266 -132 310 -207 354 -44 26 -144 43 -144 25z"/>
<path d="M13774 10670 c-67 -14 -157 -65 -203 -115 -43 -47 -91 -135 -91 -168
0 -14 -5 -17 -22 -12 -17 6 -20 4 -15 -9 4 -9 3 -15 -1 -15 -4 1 -14 1 -22 0
-12 -1 -11 -5 4 -16 22 -17 50 -20 41 -5 -3 6 1 7 9 4 11 -4 16 0 16 14 0 25
88 157 132 199 44 41 109 74 150 76 50 1 120 -13 148 -30 43 -26 92 -84 85
-101 -3 -9 -3 -13 1 -9 4 4 13 2 21 -4 18 -16 17 3 -1 40 -17 31 -81 91 -98
91 -6 0 -9 3 -5 6 11 12 77 -38 106 -79 16 -23 37 -69 47 -102 10 -33 21 -64
24 -68 4 -5 10 22 13 60 6 75 -15 143 -56 182 -56 52 -190 81 -283 61z m89
-37 c-7 -2 -19 -2 -25 0 -7 3 -2 5 12 5 14 0 19 -2 13 -5z"/>
<path d="M13251 10663 c-1 -10 -45 -13 -184 -13 -131 0 -188 -4 -200 -13 -19
-13 -22 -32 -19 -111 2 -42 4 -47 17 -36 8 7 15 27 15 46 0 60 12 64 205 64
186 0 195 3 175 52 -5 13 -9 17 -9 11z"/>
<path d="M15264 10660 c-5 -5 -93 -11 -199 -12 l-189 -3 -15 -38 c-15 -41 -15
-42 16 -51 16 -5 23 -2 28 13 3 11 12 18 20 15 7 -3 16 -1 20 5 4 7 63 11 166
11 120 0 159 3 160 13 0 6 2 22 3 35 3 25 3 25 -10 12z"/>
<path d="M6620 10645 c-19 -7 -28 -14 -20 -14 8 0 29 6 45 14 39 17 21 18 -25
0z"/>
<path d="M8790 10656 c0 -2 8 -10 18 -17 15 -13 16 -12 3 4 -13 16 -21 21 -21
13z"/>
<path d="M12595 10646 c-57 -12 -105 -31 -105 -42 0 -3 35 -4 77 -3 72 2 80 0
105 -24 29 -29 42 -34 35 -14 -2 6 0 22 4 34 6 18 3 26 -18 43 -14 11 -28 19
-32 19 -3 -1 -33 -7 -66 -13z"/>
<path d="M14586 10640 c-71 -23 -93 -40 -50 -40 16 0 47 -7 69 -14 45 -16 57
-13 48 11 -13 33 19 1 35 -36 13 -29 16 -32 20 -16 2 11 8 24 13 30 15 15 10
51 -9 68 -23 21 -52 21 -126 -3z"/>
<path d="M6761 10634 c0 -11 3 -14 6 -6 3 7 2 16 -1 19 -3 4 -6 -2 -5 -13z"/>
<path d="M7085 10645 c-5 -2 -30 -9 -54 -15 -59 -15 -41 -28 46 -32 46 -2 69
0 63 7 -6 5 -10 17 -10 27 0 17 -19 22 -45 13z"/>
<path d="M13525 10633 c-40 -20 -83 -61 -101 -95 -27 -53 -9 -66 29 -21 12 15
42 49 66 75 24 27 42 50 40 52 -2 2 -17 -3 -34 -11z"/>
<path d="M6299 10613 c-14 -36 -49 -146 -49 -155 0 -5 4 -8 10 -8 11 0 28 30
33 57 2 10 9 31 15 46 14 34 15 47 2 27 -7 -10 -10 -11 -10 -2 0 7 7 15 15 18
8 4 15 10 15 16 0 5 -5 6 -12 2 -8 -5 -9 -2 -5 9 3 10 4 17 1 17 -2 0 -9 -12
-15 -27z"/>
<path d="M11356 10613 c7 -37 15 -47 25 -32 12 19 11 32 -1 24 -5 -3 -10 1
-10 9 0 8 -4 17 -9 21 -6 3 -8 -6 -5 -22z"/>
<path d="M14166 10594 c78 -76 89 -119 88 -334 -1 -141 1 -170 11 -147 6 15
15 24 19 20 8 -8 1 300 -7 361 -3 15 -11 32 -18 37 -8 5 -10 9 -5 9 6 0 1 7
-10 16 -10 8 -13 12 -6 9 11 -6 12 -3 4 11 -15 29 -62 70 -62 55 0 -8 -6 -11
-15 -7 -8 3 -23 9 -32 13 -10 4 5 -16 33 -43z m48 0 c5 -14 4 -15 -9 -4 -17
14 -19 20 -6 20 5 0 12 -7 15 -16z"/>
<path d="M15482 10562 c-26 -27 -62 -77 -81 -111 -35 -67 -56 -125 -40 -116 5
4 9 0 9 -7 0 -7 19 21 41 63 22 42 62 103 89 137 27 34 41 58 32 55 -15 -6
-15 -5 -3 10 28 35 -2 15 -47 -31z"/>
<path d="M5460 10590 c-8 -5 -12 -11 -10 -13 3 -2 19 -13 37 -25 32 -23 83
-99 83 -125 0 -9 6 -17 13 -20 19 -6 17 -820 -2 -862 -8 -16 -14 -33 -13 -37
1 -5 -4 -8 -11 -8 -17 0 -49 -34 -41 -43 3 -3 -8 -15 -25 -25 -31 -19 -32 -20
-9 -25 13 -3 129 -6 258 -6 232 0 234 1 190 17 -167 63 -186 91 -196 288 -6
100 -11 132 -23 141 -13 10 -14 14 -3 21 11 7 9 10 -7 15 -12 3 -19 1 -15 -4
3 -6 0 -18 -7 -27 -7 -9 -10 -14 -5 -10 5 4 15 1 22 -7 18 -17 18 -31 1 -17
-21 18 -47 -21 -47 -70 0 -23 -3 -38 -7 -35 -3 4 -9 168 -12 364 l-6 358 -28
56 c-18 39 -37 62 -61 74 -19 11 -33 22 -31 25 6 9 -30 9 -45 0z"/>
<path d="M6410 10591 c0 -5 9 -19 21 -32 11 -13 17 -18 14 -11 -6 11 -3 12 11
4 32 -17 52 -45 84 -115 l30 -67 0 -377 c-1 -208 -5 -397 -9 -421 -5 -23 -5
-45 0 -48 5 -3 9 1 9 10 0 8 5 16 10 18 22 7 29 145 24 478 -6 373 -12 436
-47 487 -32 48 -147 106 -147 74z"/>
<path d="M5860 10549 c0 -18 2 -19 15 -9 15 12 12 30 -6 30 -5 0 -9 -10 -9
-21z"/>
<path d="M13494 10525 c-14 -25 -25 -48 -23 -50 2 -2 16 19 32 46 34 62 27 65
-9 4z"/>
<path d="M9570 10554 c0 -5 5 -15 12 -22 7 -7 9 -12 5 -12 -4 0 -3 -6 3 -12 5
-7 31 -40 57 -73 54 -68 104 -115 115 -109 4 3 -18 28 -49 57 -30 29 -75 81
-99 117 -24 36 -44 60 -44 54z"/>
<path d="M7198 10510 c-4 -14 -10 -203 -12 -420 -3 -217 -8 -417 -11 -445 -10
-83 46 -181 132 -232 44 -26 56 -28 148 -28 90 0 106 3 154 28 29 15 77 48
107 73 30 26 54 42 54 36 0 -6 -8 -17 -17 -24 -10 -7 -29 -26 -43 -42 -21 -24
-22 -27 -5 -18 30 15 99 72 108 89 12 21 0 28 -20 12 -15 -12 -16 -12 -10 4 8
23 6 22 -63 -25 -100 -67 -226 -84 -290 -38 -34 25 -85 103 -105 162 -9 25
-22 45 -30 45 -8 0 -12 -4 -9 -9 7 -12 -18 -35 -39 -35 -9 0 -17 5 -18 11 0 6
-3 20 -6 31 -3 11 -9 207 -12 435 -3 228 -9 404 -13 390z"/>
<path d="M5842 10464 c-24 -19 -37 -34 -30 -34 8 0 29 16 48 35 42 43 37 43
-18 -1z"/>
<path d="M11455 10420 c11 -14 21 -27 23 -30 2 -2 8 2 13 10 9 12 10 12 5 -3
-5 -16 21 -38 92 -76 39 -21 23 -4 -27 28 -27 18 -51 41 -54 52 -3 12 -10 18
-17 14 -6 -4 -21 1 -33 12 l-22 18 20 -25z"/>
<path d="M9750 10385 c0 -16 3 -25 6 -22 4 3 15 2 25 -4 27 -14 23 3 -6 31
l-25 23 0 -28z"/>
<path d="M11630 10369 c0 -7 -12 -9 -36 -4 -20 3 -34 3 -31 -2 3 -4 91 -51
196 -103 105 -52 191 -98 191 -102 0 -4 -8 -5 -17 -2 -10 3 -7 -2 7 -10 29
-18 44 -20 35 -6 -3 6 1 7 10 3 11 -4 13 -8 6 -13 -7 -4 12 -25 48 -52 32 -25
71 -63 87 -85 43 -59 48 -62 24 -14 -12 23 -18 41 -13 38 16 -10 56 -101 74
-167 l17 -65 12 30 c17 44 6 133 -23 192 -31 60 -106 130 -199 184 -67 39
-369 189 -382 189 -3 0 -6 -5 -6 -11z m510 -285 c41 -37 50 -54 27 -54 -18 0
-88 70 -81 81 8 13 11 12 54 -27z"/>
<path d="M6757 10270 c-4 -30 -7 -188 -7 -350 1 -237 4 -300 15 -320 13 -22
14 9 14 265 -1 160 -4 328 -8 375 l-6 85 -8 -55z"/>
<path d="M17175 10309 c-11 -17 1 -21 15 -4 8 9 8 15 2 15 -6 0 -14 -5 -17
-11z"/>
<path d="M16126 10286 c3 -8 12 -12 20 -9 21 8 17 23 -6 23 -13 0 -18 -5 -14
-14z"/>
<path d="M17131 10270 c-5 -17 -8 -37 -5 -44 3 -8 0 -17 -7 -22 -8 -5 -10 -3
-4 6 6 9 4 11 -4 6 -7 -5 -10 -11 -7 -14 3 -3 1 -11 -5 -19 -13 -15 -13 -15
20 -18 24 -2 39 22 55 90 l7 29 -21 -19 -21 -19 6 27 c10 37 0 34 -14 -3z"/>
<path d="M1950 10250 c0 -5 5 -10 11 -10 5 0 7 5 4 10 -3 6 -8 10 -11 10 -2 0
-4 -4 -4 -10z"/>
<path d="M11770 10225 c36 -19 70 -34 75 -34 6 0 -19 15 -55 34 -36 19 -69 34
-75 34 -5 0 19 -15 55 -34z"/>
<path d="M12254 10230 c15 -19 44 -57 63 -83 35 -47 51 -56 39 -20 -7 20 -35
52 -91 103 l-38 35 27 -35z"/>
<path d="M3982 9905 c0 -159 2 -284 5 -277 2 6 8 10 12 8 4 -3 13 -1 21 4 12
8 15 44 15 200 0 183 -5 237 -23 226 -4 -2 -8 3 -9 12 -1 9 -6 40 -11 67 -7
37 -10 -24 -10 -240z"/>
<path d="M5125 10079 c-8 -123 -3 -414 8 -425 4 -4 10 -4 15 0 11 12 7 490 -5
511 -8 14 -12 -6 -18 -86z"/>
<path d="M3923 9885 c1 -208 5 -277 15 -287 10 -10 12 25 10 192 -3 273 -8
370 -19 370 -5 0 -8 -116 -6 -275z"/>
<path d="M4926 10144 c-5 -14 -4 -15 9 -4 17 14 19 20 6 20 -5 0 -12 -7 -15
-16z"/>
<path d="M17089 10146 c-1 -6 -1 -17 0 -25 2 -7 -2 -11 -6 -8 -5 3 -15 -15
-22 -41 -13 -50 -17 -58 -49 -137 -34 -81 -62 -168 -56 -174 3 -3 9 1 14 9 6
8 10 10 10 5 0 -6 -5 -16 -11 -22 -7 -7 -6 -12 6 -17 9 -3 18 0 20 7 2 6 23
64 45 127 22 63 38 120 35 128 -2 7 -1 11 4 8 5 -4 16 14 24 39 14 39 14 45 1
45 -8 0 -14 -7 -14 -16 0 -8 -5 -12 -10 -9 -14 8 6 35 26 35 13 0 26 27 21 45
-3 13 -37 14 -38 1z m28 -12 c-3 -3 -12 -4 -19 -1 -8 3 -5 6 6 6 11 1 17 -2
13 -5z m-46 -107 c-10 -9 -11 -8 -5 6 3 10 9 15 12 12 3 -3 0 -11 -7 -18z"/>
<path d="M17670 10120 c-18 -6 -5 -8 45 -8 48 -1 64 2 50 8 -25 11 -62 11 -95
0z"/>
<path d="M4785 10066 c-226 -85 -295 -128 -337 -209 -25 -51 -21 -124 9 -154
l21 -21 6 55 c7 59 34 124 69 163 32 36 88 77 117 84 15 4 9 -2 -15 -15 -85
-45 -144 -126 -145 -196 0 -27 4 -33 20 -33 11 0 22 6 24 13 38 130 92 190
228 252 55 25 109 43 125 42 l28 -2 0 -194 0 -193 -52 -48 c-29 -27 -76 -60
-105 -74 -29 -15 -42 -24 -28 -20 46 12 124 59 168 101 56 52 76 62 60 28 -6
-13 -14 -23 -18 -22 -4 1 -37 -22 -73 -50 -79 -65 -159 -103 -232 -110 -46 -5
-63 -2 -109 21 -75 37 -112 84 -130 165 -14 66 -13 116 4 179 4 17 7 32 5 32
-7 0 -48 -73 -48 -84 0 -7 -8 -12 -18 -12 -17 0 -17 2 -3 18 9 9 13 22 9 28
-7 11 54 72 65 65 3 -2 12 6 20 18 11 19 8 18 -26 -7 -54 -40 -94 -78 -94 -89
0 -5 7 -4 15 3 10 9 15 9 15 1 0 -6 -4 -12 -10 -12 -5 -1 -16 -2 -22 -3 -7 0
-13 -7 -13 -15 0 -8 -6 -16 -12 -18 -10 -4 -10 3 -1 29 19 54 113 139 210 188
48 25 85 46 83 48 -2 2 -23 -7 -47 -19 -23 -12 -65 -28 -92 -35 -26 -7 -66
-25 -87 -40 -47 -32 -99 -105 -99 -139 0 -13 -7 -67 -16 -119 l-16 -95 26 -44
c27 -48 79 -98 125 -121 91 -48 259 -41 361 15 50 27 48 22 -5 -16 -15 -11 -7
-10 29 3 27 9 68 34 91 55 24 20 48 37 53 37 6 0 24 -18 42 -39 43 -56 90 -82
147 -84 60 -1 113 5 113 14 0 4 7 10 16 13 15 6 15 4 3 -10 -13 -16 -11 -17
16 -10 56 14 120 76 144 139 9 22 8 25 -6 20 -9 -4 -29 -20 -45 -37 -24 -25
-27 -27 -18 -8 6 13 10 25 8 27 -2 2 -23 -9 -47 -26 -51 -34 -83 -36 -131 -11
-61 33 -72 69 -76 265 -2 94 -6 178 -9 185 -6 17 -25 15 -25 -3 0 -8 -6 -15
-12 -15 -10 0 -9 -3 1 -9 10 -7 7 -12 -15 -22 -25 -12 -30 -22 -35 -64 -3 -28
-7 24 -7 116 -2 164 -2 167 -24 173 -29 7 -11 12 -173 -48z m245 -206 c0 -5
-5 -10 -11 -10 -5 0 -7 5 -4 10 3 6 8 10 11 10 2 0 4 -4 4 -10z m260 -424 c0
-2 -8 -10 -17 -17 -16 -13 -17 -12 -4 4 13 16 21 21 21 13z"/>
<path d="M13980 10076 c-190 -64 -289 -114 -332 -167 -73 -90 -97 -183 -61
-236 10 -15 25 -41 33 -57 21 -41 65 -86 84 -86 12 0 8 10 -16 36 -18 19 -41
49 -50 67 -22 38 -23 122 -3 157 8 14 14 21 15 15 0 -5 13 13 29 40 31 53 57
82 67 72 8 -8 136 57 153 77 19 23 9 20 -62 -15 -42 -20 -54 -24 -37 -10 14
11 52 30 85 42 33 11 70 25 81 31 12 6 31 7 44 3 14 -4 28 -1 40 10 10 9 23
14 28 11 5 -3 13 -43 18 -88 l8 -83 6 81 c4 45 10 86 14 93 8 12 -2 52 -12 50
-4 -1 -63 -20 -132 -43z"/>
<path d="M17458 10113 c6 -2 18 -2 25 0 6 3 1 5 -13 5 -14 0 -19 -2 -12 -5z"/>
<path d="M18701 9886 c0 -121 1 -217 4 -214 9 8 13 331 5 383 -5 32 -8 -27 -9
-169z"/>
<path d="M12363 10019 c12 -75 -8 -188 -55 -304 -27 -68 -43 -91 -107 -155
-109 -108 -230 -160 -376 -160 -101 0 -286 54 -402 116 -71 39 -72 39 -98 20
-16 -12 -17 -16 -6 -30 10 -12 17 -13 26 -6 10 8 15 8 21 -1 4 -8 3 -9 -4 -5
-7 4 -12 2 -12 -4 0 -8 10 -10 28 -6 19 5 23 4 12 -3 -11 -8 -9 -12 15 -21 15
-6 35 -8 42 -6 8 3 12 2 9 -3 -15 -24 146 -60 309 -68 126 -6 226 5 293 33
142 60 165 77 268 197 9 11 27 44 41 75 24 54 25 64 21 207 -3 83 -8 158 -12
168 -16 36 -22 15 -13 -44z"/>
<path d="M4670 10050 c-8 -5 -10 -10 -5 -10 6 0 17 5 25 10 8 5 11 10 5 10 -5
0 -17 -5 -25 -10z"/>
<path d="M12845 9875 c2 -99 8 -196 14 -216 16 -51 53 -103 76 -107 16 -3 18
-1 8 9 -7 7 -13 21 -13 31 0 9 -11 42 -25 72 -22 49 -25 69 -26 183 -1 75 -4
118 -9 103 l-7 -25 -6 25 c-4 14 -9 43 -11 65 -2 22 -3 -41 -1 -140z"/>
<path d="M15364 9968 c16 -195 66 -311 186 -430 122 -120 217 -158 397 -158
116 0 194 20 274 71 47 30 169 150 169 167 0 5 11 21 25 36 14 15 23 32 20 37
-4 5 -2 9 2 9 5 0 9 9 9 20 0 32 -13 24 -54 -38 -56 -82 -122 -138 -210 -180
-72 -34 -84 -37 -187 -40 -73 -2 -105 0 -96 7 8 5 20 7 28 4 7 -3 13 -3 13 0
0 3 -24 13 -53 21 -29 8 -80 33 -112 54 -55 36 -146 124 -159 154 -3 10 -8 8
-16 -5 -8 -12 -18 -16 -31 -12 -11 4 -19 2 -19 -4 0 -6 5 -11 10 -11 6 0 10
-7 10 -16 0 -14 -2 -14 -15 0 -8 8 -15 19 -15 25 0 5 -6 14 -14 18 -17 10 -68
112 -91 183 -10 30 -24 63 -32 72 -8 9 -17 35 -20 57 -3 23 -10 41 -16 41 -6
0 -7 -29 -3 -82z m513 -494 c-3 -3 -12 -4 -19 -1 -8 3 -5 6 6 6 11 1 17 -2 13
-5z"/>
<path d="M18005 10030 c3 -5 8 -10 11 -10 2 0 4 5 4 10 0 6 -5 10 -11 10 -5 0
-7 -4 -4 -10z"/>
<path d="M2216 9953 c35 -147 111 -275 225 -377 90 -81 241 -137 364 -135 l50
1 -70 13 c-140 26 -237 70 -306 139 -53 54 -125 179 -165 288 -16 43 -33 78
-38 78 -5 0 -15 -8 -23 -17 -8 -10 -12 -12 -8 -5 3 6 1 12 -4 12 -6 0 -11 7
-11 15 0 8 -5 15 -10 15 -6 0 -8 -11 -4 -27z"/>
<path d="M3360 9839 c-80 -160 -142 -239 -240 -303 -100 -66 -190 -97 -345
-120 -16 -3 4 -3 45 -1 101 6 178 27 279 77 117 57 171 113 227 236 25 53 49
105 55 116 14 24 39 96 34 96 -2 0 -27 -45 -55 -101z"/>
<path d="M13469 9901 c-16 -16 -29 -37 -29 -47 0 -9 1 -15 3 -13 2 2 18 23 36
47 38 49 33 55 -10 13z"/>
<path d="M13498 9873 c-27 -29 -68 -92 -68 -105 0 -5 5 -8 10 -8 6 0 10 7 10
15 0 16 28 61 64 103 28 31 15 27 -16 -5z"/>
<path d="M14101 9864 c0 -11 3 -14 6 -6 3 7 2 16 -1 19 -3 4 -6 -2 -5 -13z"/>
<path d="M15327 9848 c-20 -54 57 -221 143 -309 33 -33 64 -58 69 -55 5 3 14
-1 20 -8 7 -8 27 -19 44 -25 26 -8 28 -8 13 2 -11 7 -41 31 -66 54 -26 24 -50
41 -53 38 -4 -3 -5 -2 -3 1 3 3 -14 37 -38 74 -23 38 -58 107 -77 154 -34 85
-42 98 -52 74z m204 -345 c13 -16 12 -17 -3 -4 -10 7 -18 15 -18 17 0 8 8 3
21 -13z"/>
<path d="M9795 9838 c-3 -7 -23 -105 -46 -218 -22 -113 -51 -250 -64 -305 -12
-55 -26 -120 -30 -145 -4 -25 -13 -57 -21 -71 -7 -15 -10 -29 -7 -32 3 -4 1
-12 -4 -19 -6 -7 -14 -38 -18 -68 -4 -34 -15 -64 -28 -77 -22 -25 -39 -30 -32
-10 5 13 57 311 81 465 8 52 18 111 23 133 5 21 6 39 1 39 -4 0 -15 -46 -24
-102 -10 -57 -31 -170 -47 -253 -15 -82 -37 -194 -47 -247 l-18 -98 210 1
c127 0 200 4 184 9 -15 4 -35 15 -44 24 -14 15 -11 16 33 17 26 1 62 4 78 8
l30 7 -40 7 c-22 4 -89 7 -148 7 -158 0 -215 33 -152 88 14 12 25 27 25 33 0
5 5 7 12 3 8 -5 9 0 6 14 -4 12 -3 22 1 22 16 0 62 278 66 397 2 67 8 147 14
179 21 128 25 245 6 192z"/>
<path d="M6678 9833 c7 -3 16 -2 19 1 4 3 -2 6 -13 5 -11 0 -14 -3 -6 -6z"/>
<path d="M14102 9810 c0 -14 2 -19 5 -12 2 6 2 18 0 25 -3 6 -5 1 -5 -13z"/>
<path d="M6633 9808 c-4 -7 -8 -51 -8 -98 0 -47 -3 -89 -6 -95 -3 -5 -12 -30
-19 -55 -16 -50 -22 -58 -63 -85 -21 -14 -31 -15 -36 -6 -5 8 -13 5 -27 -10
-12 -15 -14 -20 -4 -15 8 4 6 0 -4 -8 -11 -9 -16 -19 -12 -23 7 -7 456 -15
456 -8 0 2 -30 17 -67 35 -119 55 -134 83 -138 258 -2 100 -14 155 -16 76 -1
-22 -4 -30 -6 -19 -3 11 -10 26 -15 33 -7 8 -6 12 3 12 11 0 11 2 -1 10 -20
13 -27 12 -37 -2z m37 -68 c0 -5 -2 -10 -4 -10 -3 0 -8 5 -11 10 -3 6 -1 10 4
10 6 0 11 -4 11 -10z m16 -68 c-11 -10 -15 4 -8 28 l7 25 3 -23 c2 -13 1 -26
-2 -30z m-6 -42 c-7 -4 -9 -13 -6 -19 10 -16 0 -13 -18 5 -9 8 -16 21 -16 27
0 7 4 6 10 -3 9 -13 12 -12 22 5 8 14 13 16 16 6 2 -7 -1 -17 -8 -21z"/>
<path d="M14758 9739 l-3 -51 -26 21 c-15 11 -29 17 -33 14 -12 -12 -6 -103
11 -145 21 -54 66 -113 104 -135 16 -10 29 -21 29 -26 0 -4 -21 7 -47 24 -35
23 -43 26 -29 11 11 -12 43 -34 73 -48 48 -24 62 -26 142 -22 76 3 99 9 153
37 78 39 149 95 174 136 21 34 26 37 -72 -37 -102 -77 -261 -85 -325 -17 -25
27 -26 33 -7 30 4 0 -1 14 -12 32 -33 54 -24 77 10 24 16 -26 44 -56 62 -67
44 -26 55 -25 25 3 -20 18 -68 123 -91 199 -3 11 -11 15 -21 12 -8 -3 -15 -1
-15 6 0 6 -4 9 -10 5 -5 -3 -7 -12 -4 -19 3 -8 0 -17 -6 -21 -6 -4 -11 -1 -9
6 1 8 1 22 0 32 -1 15 -3 16 -14 5 -8 -7 -16 -20 -20 -28 -3 -8 -6 4 -6 28 -1
30 -5 42 -15 42 -11 0 -16 -15 -18 -51z"/>
<path d="M16280 9680 c-97 -101 -89 -103 40 -13 19 14 23 14 15 2 -5 -8 3 -1
18 16 15 16 34 42 43 58 14 26 14 27 -8 26 -15 -1 -53 -32 -108 -89z"/>
<path d="M14253 9703 c8 -65 43 -148 71 -166 11 -8 32 -17 46 -21 25 -8 25 -8
4 8 -21 15 -59 92 -67 137 -10 50 -20 80 -25 75 -3 -3 -12 0 -20 7 -13 10 -15
6 -9 -40z"/>
<path d="M15542 9728 c-7 -7 -12 -16 -12 -20 0 -15 15 -8 28 12 13 22 3 27
-16 8z"/>
<path d="M15583 9724 c-15 -16 -16 -24 -4 -24 8 0 24 30 19 35 -2 2 -9 -3 -15
-11z"/>
<path d="M16970 9709 c0 -5 -4 -8 -8 -5 -4 2 -8 -4 -8 -15 0 -19 1 -19 13 -3
13 18 17 34 8 34 -3 0 -5 -5 -5 -11z"/>
<path d="M12687 9696 c-7 -18 3 -107 14 -131 10 -20 10 -20 -5 -1 -9 11 -16
28 -16 37 0 10 -4 21 -10 24 -13 8 -13 -20 0 -66 13 -47 81 -124 132 -150 22
-11 37 -16 33 -10 -9 15 1 14 37 -5 42 -22 163 -14 219 14 21 11 39 16 39 11
0 -5 7 -6 15 -3 8 3 13 11 12 17 -1 7 6 11 17 9 12 -2 16 1 10 9 -5 8 -3 10 5
4 8 -4 24 4 42 21 35 33 84 103 77 109 -2 3 -29 -16 -59 -42 -99 -84 -207
-112 -310 -78 -99 33 -146 74 -194 170 -26 51 -52 78 -58 61z m110 -254 c21
-17 32 -31 24 -32 -21 0 -124 107 -116 120 5 7 16 -1 30 -23 13 -19 41 -48 62
-65z"/>
<path d="M13416 9657 c-4 -22 -13 -37 -21 -37 -7 0 -16 -8 -20 -19 -16 -50 60
-140 158 -187 91 -43 146 -50 254 -29 93 18 159 49 207 96 32 33 62 37 70 11
4 -10 21 -33 39 -50 27 -26 34 -29 34 -15 0 22 -42 74 -52 65 -5 -4 -5 -1 -1
6 4 7 3 19 -4 27 -7 9 -8 15 0 20 5 3 10 2 10 -3 0 -19 57 -92 90 -117 35 -26
34 -33 -2 -14 -11 6 -22 8 -25 6 -3 -3 9 -13 26 -21 64 -34 202 -12 282 44 24
18 75 98 67 106 -2 1 -23 -12 -47 -31 -94 -75 -234 -62 -299 28 -13 18 -29 41
-36 52 -17 24 -35 17 -132 -53 -38 -27 -89 -57 -114 -66 -66 -26 -180 -24
-255 5 -33 12 -54 24 -47 27 17 5 -4 32 -25 32 -13 0 -13 -2 -2 -17 9 -11 2
-8 -16 6 -30 22 -85 96 -85 113 0 4 -7 8 -15 8 -9 0 -19 10 -24 22 -7 20 -9
18 -15 -15z m106 -212 c16 -14 24 -25 17 -25 -15 0 -109 93 -109 109 0 6 14
-4 31 -24 17 -19 44 -46 61 -60z"/>
<path d="M14015 9633 c-37 -50 -38 -58 -1 -24 34 33 45 51 29 51 -5 0 -17 -13
-28 -27z"/>
<path d="M14630 9638 c0 -26 38 -120 58 -143 26 -29 79 -73 63 -52 -8 9 -11
20 -8 24 4 3 -4 24 -17 47 -13 22 -31 64 -40 93 -13 40 -22 51 -37 50 -11 -1
-19 -9 -19 -19z"/>
<path d="M13510 9632 c0 -4 10 -9 22 -9 18 -2 20 0 8 7 -18 12 -30 13 -30 2z"/>
<path d="M7430 9620 c0 -39 78 -115 98 -96 3 3 0 6 -6 6 -6 0 -30 23 -52 51
-22 28 -40 46 -40 39z"/>
<path d="M16896 9609 c-21 -21 -8 -27 14 -6 7 6 5 0 -6 -14 -10 -15 -22 -22
-25 -17 -4 7 -9 6 -13 -1 -4 -6 -4 -11 -1 -11 4 0 -26 -26 -66 -57 -61 -48
-70 -59 -52 -61 67 -10 204 123 176 171 -7 12 -11 11 -27 -4z"/>
<path d="M4546 9586 c7 -18 56 -42 104 -50 l35 -7 -40 19 c-22 10 -46 26 -54
35 -17 21 -53 23 -45 3z"/>
<path d="M5190 9584 c0 -9 14 -21 30 -27 17 -6 30 -15 30 -19 0 -4 4 -8 10 -8
5 0 2 16 -7 35 -12 25 -23 35 -40 35 -14 0 -23 -6 -23 -16z"/>
<path d="M9654 9586 c-3 -8 -4 -23 -2 -33 3 -11 6 -6 9 15 6 34 2 42 -7 18z"/>
<path d="M13530 9572 c0 -5 6 -15 14 -21 11 -9 15 -8 20 5 4 9 4 19 1 22 -3 3
-5 0 -5 -8 0 -10 -3 -10 -15 0 -8 7 -15 8 -15 2z"/>
<path d="M13600 9561 c0 -6 4 -13 10 -16 6 -3 7 1 4 9 -7 18 -14 21 -14 7z"/>
<path d="M4015 9531 c-18 -8 -17 -12 22 -48 26 -26 55 -43 78 -47 43 -8 59 1
30 17 -11 6 -37 28 -58 49 -40 41 -41 41 -72 29z"/>
<path d="M18555 9513 c-10 -16 -32 -40 -49 -55 l-31 -27 28 -1 c51 0 124 48
140 93 5 14 0 17 -32 17 -31 0 -42 -5 -56 -27z"/>
<path d="M5880 9517 c0 -15 34 -49 67 -66 35 -18 33 -13 -15 34 -50 50 -52 51
-52 32z"/>
<path d="M4678 9503 c6 -2 18 -2 25 0 6 3 1 5 -13 5 -14 0 -19 -2 -12 -5z"/>
<path d="M6871 9491 c8 -14 26 -32 40 -40 24 -16 24 -16 8 8 -8 14 -26 32 -40
40 l-24 16 16 -24z"/>
<path d="M5485 9450 c-3 -5 -2 -10 4 -10 5 0 13 5 16 10 3 6 2 10 -4 10 -5 0
-13 -4 -16 -10z"/>
<path d="M8294 9093 c-33 -40 -38 -49 -15 -28 32 30 77 85 68 85 -3 0 -26 -26
-53 -57z"/>
<path d="M8255 9013 c-22 -19 -31 -31 -20 -25 19 9 74 63 64 62 -2 -1 -22 -17
-44 -37z"/>
</g>
</svg>
