<?xml version="1.0" standalone="no"?>
<!DOCTYPE svg PUBLIC "-//W3C//DTD SVG 20010904//EN"
 "http://www.w3.org/TR/2001/REC-SVG-20010904/DTD/svg10.dtd">
<svg version="1.0" xmlns="http://www.w3.org/2000/svg"
 width="2048.000000pt" height="2048.000000pt" viewBox="0 0 2048.000000 2048.000000"
 preserveAspectRatio="xMidYMid meet">

<g transform="translate(0.000000,2048.000000) scale(0.100000,-0.100000)"
fill="#000000" stroke="none">
<path d="M9994 11386 c-33 -12 -76 -32 -95 -44 -61 -38 -157 -144 -184 -204
-27 -60 -46 -147 -26 -118 9 13 11 13 11 0 0 -15 32 28 66 90 23 42 27 47 87
111 26 29 47 56 47 61 0 5 4 7 8 4 5 -3 15 4 22 15 8 10 19 19 24 19 5 0 24
11 43 26 18 14 33 22 33 18 0 -4 9 1 21 12 12 10 24 18 27 16 4 -2 8 1 10 7 6
17 -27 12 -94 -13z"/>
<path d="M9721 11268 c-19 -18 -30 -26 -25 -18 7 13 5 13 -9 1 -36 -29 -107
-184 -92 -199 3 -3 14 15 25 39 11 24 19 34 16 22 -6 -34 1 -28 22 20 11 23
40 70 66 105 50 68 49 80 -3 30z"/>
<path d="M3785 11265 c-44 -13 -97 -27 -118 -30 -27 -5 -36 -10 -28 -18 10
-10 32 -6 185 36 28 8 52 19 54 25 5 16 1 15 -93 -13z"/>
<path d="M17505 11263 c-7 -7 -27 -51 -44 -98 -40 -111 -46 -135 -32 -135 6 0
11 -4 11 -10 0 -5 -7 -7 -15 -3 -9 3 -15 2 -14 -3 1 -5 -5 -26 -15 -47 -9 -21
-14 -43 -10 -49 4 -7 3 -8 -4 -4 -11 7 -13 3 -16 -36 -1 -7 7 -12 17 -10 9 2
17 -2 17 -8 0 -5 -5 -10 -11 -10 -5 0 -7 -5 -3 -11 5 -8 10 -6 16 5 6 11 6 22
-2 31 -8 10 -8 19 -1 33 5 10 7 29 4 42 -4 16 -3 21 5 16 8 -5 10 -1 5 10 -3
10 -2 15 3 12 11 -6 45 28 36 37 -4 3 0 11 8 16 13 9 12 10 -2 5 -12 -3 -15
-1 -11 10 3 8 11 13 18 10 8 -3 16 2 19 10 9 24 7 31 -4 14 -8 -12 -10 -11
-10 7 0 12 5 25 10 28 6 3 10 1 10 -6 0 -21 9 -5 34 62 13 35 27 72 31 81 5
13 2 17 -16 15 -12 -1 -28 -7 -34 -14z m35 -13 c0 -5 -2 -10 -4 -10 -3 0 -8 5
-11 10 -3 6 -1 10 4 10 6 0 11 -4 11 -10z m-17 -35 c-7 -21 -13 -19 -13 6 0
11 4 18 10 14 5 -3 7 -12 3 -20z m-20 -55 c-3 -11 -9 -18 -13 -15 -5 3 -6 14
-3 25 3 11 9 18 13 15 5 -3 6 -14 3 -25z"/>
<path d="M17629 11270 c-10 -76 -8 -91 31 -195 23 -61 61 -164 85 -230 23 -66
92 -253 153 -415 93 -250 152 -415 152 -426 0 -2 -9 -2 -20 -1 -11 1 -20 7
-20 14 0 7 -5 13 -11 13 -5 0 -7 -5 -4 -10 3 -6 -1 -17 -10 -26 -9 -9 -13 -19
-10 -22 3 -4 10 0 16 8 8 13 10 13 18 1 5 -8 7 -21 3 -29 -4 -10 -1 -13 7 -8
8 5 11 3 10 -5 -2 -8 0 -32 5 -53 5 -28 4 -42 -6 -48 -9 -7 -8 -8 5 -4 15 5
17 2 12 -14 -4 -11 -2 -20 4 -20 5 0 12 8 14 18 4 13 5 11 6 -5 0 -13 -3 -23
-9 -23 -5 0 -10 -9 -10 -21 0 -11 5 -17 10 -14 6 3 10 1 10 -5 0 -6 4 -8 10
-5 6 3 7 -1 3 -10 -5 -14 -8 -14 -15 -3 -6 9 -7 3 -3 -17 13 -62 -14 -7 -65
130 -29 77 -63 161 -76 186 -13 26 -20 49 -17 53 4 3 -7 0 -23 -8 -31 -16
-356 -28 -347 -13 2 4 -1 7 -6 7 -6 0 -11 -4 -11 -10 0 -6 -46 -9 -122 -8
-122 2 -122 2 -43 9 64 5 57 6 -38 3 -65 -2 -126 -8 -136 -14 -11 -5 -31 -43
-46 -87 -16 -43 -45 -120 -66 -171 -45 -109 -64 -194 -57 -256 5 -44 5 -44
-31 -51 -20 -3 -68 -19 -108 -36 -39 -16 -79 -29 -87 -29 -20 0 -21 -26 -2
-33 17 -7 376 2 388 9 15 9 8 24 -15 33 -38 15 -89 63 -103 98 -16 37 -19 113
-5 113 12 0 30 54 33 98 1 17 5 32 9 32 4 0 11 19 17 43 13 49 77 209 83 207
2 -1 11 1 19 4 18 6 498 14 521 9 29 -7 112 -219 150 -385 13 -54 29 -78 29
-43 0 19 14 19 34 -1 15 -14 16 -12 16 18 0 32 -88 306 -117 361 -8 16 -12 31
-10 33 14 15 146 -348 149 -412 2 -24 5 -44 8 -44 3 0 13 14 22 30 9 17 22 30
27 30 19 0 23 -48 10 -92 -15 -47 -59 -79 -136 -99 -24 -6 -43 -15 -43 -19 0
-16 100 -19 555 -16 443 3 625 14 625 36 0 4 -11 12 -25 18 -13 6 -36 30 -51
52 l-28 41 2 297 c0 171 -3 286 -8 272 -8 -24 -8 -23 -9 8 -1 20 3 31 9 27 6
-3 10 -1 10 4 0 6 -4 11 -10 11 -5 0 -10 10 -10 22 0 12 -3 19 -6 16 -3 -3 -7
-104 -9 -225 -3 -215 -11 -287 -26 -233 -17 60 -5 620 13 620 4 0 8 -12 8 -27
0 -14 3 -24 6 -20 4 3 6 155 5 338 -2 314 -1 333 17 353 11 11 22 36 26 54 12
69 43 120 79 136 33 13 58 36 39 36 -28 0 -104 -36 -135 -63 -64 -60 -70 -99
-82 -641 -2 -115 -8 -212 -12 -215 -16 -11 -43 -60 -44 -78 0 -10 -6 -2 -12
17 l-10 35 -8 -45 c-4 -25 -11 -184 -14 -355 -7 -320 -11 -351 -52 -393 -37
-39 -165 -87 -192 -73 -14 9 -14 10 4 17 52 17 106 48 114 63 12 22 -2 46 -23
38 -8 -3 -18 -2 -21 4 -4 5 -18 0 -34 -14 -36 -30 -149 -53 -183 -37 -21 10
-20 9 5 -14 15 -14 45 -30 67 -36 22 -6 40 -15 40 -20 0 -13 0 -13 -51 5 -48
17 -99 61 -133 115 -25 39 -113 259 -310 775 -21 54 -155 416 -261 705 -74
202 -103 270 -106 250z m1281 -712 c0 -70 -3 -98 -10 -88 -13 20 -13 190 0
190 6 0 10 -41 10 -102z m0 -140 c0 -23 -3 -29 -11 -21 -6 6 -8 20 -4 32 9 30
15 26 15 -11z m27 -385 c-3 -10 -5 -2 -5 17 0 19 2 27 5 18 2 -10 2 -26 0 -35z
m-878 -71 c0 -14 -2 -14 -6 -2 -4 8 -13 21 -22 28 -14 11 -13 11 7 2 12 -6 22
-18 21 -28z m19 -50 c2 -12 8 -22 13 -22 5 0 9 -11 9 -24 0 -13 4 -26 9 -28 4
-1 12 -14 15 -28 7 -23 6 -23 -13 5 -12 17 -21 38 -21 48 0 9 -4 17 -9 17 -5
0 -11 10 -13 23 -2 12 -9 21 -16 19 -8 -1 -10 2 -7 8 10 17 30 6 33 -18z m195
-499 c-7 -2 -19 -2 -25 0 -7 3 -2 5 12 5 14 0 19 -2 13 -5z"/>
<path d="M2675 11229 c-160 -24 -263 -74 -366 -179 -91 -93 -147 -197 -184
-344 -36 -144 -41 -234 -17 -331 20 -77 21 -78 21 -34 1 62 28 251 46 322 40
156 191 399 276 443 46 23 43 16 -10 -26 -120 -95 -225 -291 -245 -460 -5 -35
-4 -50 2 -42 5 8 21 15 36 15 22 2 28 9 37 42 54 197 106 299 204 400 58 59
83 77 145 103 86 35 213 56 299 50 103 -7 243 -90 321 -190 39 -48 52 -76 29
-62 -7 4 -7 -2 1 -17 18 -34 24 -38 16 -11 -4 12 -5 22 -1 22 9 0 65 -126 65
-145 0 -9 5 -13 10 -10 6 3 10 -4 10 -18 0 -14 7 -30 15 -37 25 -21 19 6 -34
144 -78 203 -128 260 -286 322 -119 48 -255 62 -390 43z"/>
<path d="M3566 11222 c-6 -11 5 -21 48 -42 33 -17 73 -72 109 -151 l25 -55 -5
-694 c-6 -673 -6 -696 -26 -735 -11 -22 -27 -49 -36 -59 -13 -16 -14 -18 -1
-11 8 4 24 15 35 24 19 15 19 15 5 -2 -8 -11 -37 -32 -65 -48 -50 -29 -51 -33
-5 -30 18 1 21 -1 11 -7 -20 -14 92 -23 254 -21 76 1 153 5 170 9 28 6 27 7
-30 24 -87 26 -112 42 -143 89 -27 41 -27 45 -32 242 -5 186 -6 200 -24 203
-14 3 -17 0 -13 -12 4 -9 3 -16 -1 -16 -12 0 -29 14 -35 30 -4 12 -6 11 -6 -2
-1 -10 -5 -18 -11 -18 -6 0 -10 100 -11 278 0 152 -4 408 -8 567 -7 266 -9
294 -29 338 -18 41 -29 51 -74 71 -74 32 -95 38 -102 28z"/>
<path d="M6532 11206 c-13 -17 -17 -35 -14 -56 l5 -32 28 46 c16 25 34 46 41
46 6 0 9 3 6 6 -4 3 -21 -2 -40 -12 l-33 -17 19 22 c11 11 16 21 13 21 -3 0
-14 -11 -25 -24z"/>
<path d="M6800 11192 c18 -24 35 -40 38 -37 3 3 -11 22 -33 43 l-38 37 33 -43z"/>
<path d="M11786 11219 c-98 -13 -178 -52 -232 -112 -61 -68 -72 -93 -79 -173
l-5 -69 14 60 c28 120 53 161 135 218 61 42 149 67 234 67 71 0 102 -11 241
-87 76 -41 143 -126 188 -237 19 -47 27 -59 23 -36 -17 97 -66 208 -111 254
-93 93 -246 136 -408 115z"/>
<path d="M18583 11196 c41 -30 52 -48 12 -22 -14 10 -49 20 -78 23 l-52 5 35
-25 c20 -14 44 -41 55 -60 17 -32 23 -35 58 -34 37 2 38 3 33 32 l-5 30 18
-35 c10 -19 22 -50 26 -67 8 -38 20 -43 29 -10 10 36 7 66 -9 97 -16 32 -82
75 -130 85 -30 7 -30 7 8 -19z"/>
<path d="M18678 11203 c6 -2 18 -2 25 0 6 3 1 5 -13 5 -14 0 -19 -2 -12 -5z"/>
<path d="M2377 11175 c-162 -67 -297 -189 -400 -361 -20 -34 -37 -69 -37 -78
0 -9 -4 -16 -8 -16 -8 0 -24 -33 -53 -108 -12 -30 -11 -59 0 -66 5 -4 7 8 4
26 -3 18 -1 30 3 25 4 -4 14 7 21 24 7 18 15 30 18 27 2 -2 -4 -65 -15 -139
-10 -74 -22 -160 -25 -191 -4 -32 -10 -58 -15 -58 -4 0 -6 9 -3 20 3 11 0 20
-6 20 -16 0 -6 -180 14 -255 33 -128 136 -305 227 -395 24 -23 43 -45 43 -49
0 -11 48 -49 118 -95 224 -146 556 -186 829 -100 43 14 82 23 87 20 11 -7 168
47 214 74 40 24 50 46 17 37 -27 -7 -31 3 -14 33 7 14 13 20 14 14 0 -7 9 -14
21 -17 12 -3 19 -3 16 0 -3 3 -2 16 3 29 8 20 29 164 44 307 6 51 -10 71 -38
48 -7 -6 -15 -8 -18 -5 -3 3 -13 -16 -22 -42 -19 -56 -19 -57 -6 -49 10 6 7
-22 -6 -64 -2 -7 -11 -60 -19 -116 -16 -115 -27 -145 -58 -164 -20 -13 -20
-12 2 13 20 21 27 47 41 143 10 65 20 132 24 148 8 38 5 32 -48 -99 -33 -82
-50 -113 -71 -125 -15 -9 -40 -28 -56 -42 -44 -41 -161 -98 -246 -120 -91 -24
-277 -29 -358 -10 -304 71 -466 267 -540 658 -15 73 -21 90 -33 85 -9 -3 -13
-1 -9 5 4 6 1 26 -7 44 l-14 34 -10 -35 c-10 -34 -10 -34 -11 -7 -1 35 -19 70
-32 62 -5 -4 -9 2 -9 12 0 15 -2 16 -10 3 -21 -33 -11 181 15 294 58 256 203
444 463 603 48 29 32 28 -41 -2z m923 -1680 c0 -2 -10 -9 -22 -15 -22 -11 -22
-10 -4 4 21 17 26 19 26 11z m-50 -30 c0 -6 -56 -35 -67 -35 -4 1 8 9 27 20
39 22 40 22 40 15z m-317 -72 c-7 -2 -19 -2 -25 0 -7 3 -2 5 12 5 14 0 19 -2
13 -5z m-200 -10 c-7 -2 -19 -2 -25 0 -7 3 -2 5 12 5 14 0 19 -2 13 -5z m124
1 c-3 -3 -12 -4 -19 -1 -8 3 -5 6 6 6 11 1 17 -2 13 -5z"/>
<path d="M6760 11181 c0 -5 7 -12 16 -15 14 -5 15 -4 4 9 -14 17 -20 19 -20 6z"/>
<path d="M3375 11140 c3 -5 16 -10 28 -9 21 0 21 1 2 9 -28 12 -37 12 -30 0z"/>
<path d="M12277 11108 c8 -46 13 -48 13 -5 0 21 -4 37 -10 37 -5 0 -7 -14 -3
-32z"/>
<path d="M3320 11120 l-25 -8 28 -1 c15 -1 27 4 27 9 0 6 -1 10 -2 9 -2 -1
-14 -5 -28 -9z"/>
<path d="M6527 11082 c-2 -4 -7 -20 -11 -36 -8 -34 20 -70 73 -92 37 -16 95
-19 87 -5 -4 5 4 7 16 4 19 -4 21 -3 8 7 -13 10 -13 11 3 6 9 -3 17 -2 17 2 0
4 12 16 27 26 16 12 23 14 18 5 -15 -24 -57 -54 -94 -66 l-36 -11 47 -1 c30
-1 62 7 88 20 22 12 40 22 40 23 0 6 -37 -1 -50 -9 -13 -8 -13 -6 -1 8 7 9 17
15 21 12 5 -3 12 0 16 6 5 8 3 9 -6 4 -10 -6 -12 -4 -6 11 9 21 10 28 8 62 -3
31 -20 28 -71 -13 -62 -49 -102 -48 -152 5 -21 22 -40 36 -42 32z"/>
<path d="M12291 11044 c0 -11 3 -14 6 -6 3 7 2 16 -1 19 -3 4 -6 -2 -5 -13z"/>
<path d="M12160 11036 c0 -2 8 -10 18 -17 15 -13 16 -12 3 4 -13 16 -21 21
-21 13z"/>
<path d="M14907 11019 c-3 -8 -14 -48 -25 -89 -32 -116 -20 -227 26 -245 11
-4 13 2 7 32 -4 21 -7 48 -7 60 1 12 -3 25 -8 28 -11 7 -4 136 10 185 5 18 8
36 5 38 -2 3 -6 -1 -8 -9z"/>
<path d="M7336 10983 c-6 -14 -5 -15 5 -6 7 7 10 15 7 18 -3 3 -9 -2 -12 -12z"/>
<path d="M14825 10970 c-10 -19 -28 -54 -40 -77 -12 -24 -26 -39 -30 -35 -5 4
-5 1 0 -7 7 -11 12 -10 28 10 28 35 69 119 64 132 -2 7 -12 -4 -22 -23z"/>
<path d="M12871 10913 c-16 -74 -11 -187 10 -208 12 -13 14 0 11 103 -4 168
-5 175 -21 105z"/>
<path d="M12831 10933 c-10 -26 -10 -27 4 -9 8 11 15 23 15 28 0 15 -7 8 -19
-19z"/>
<path d="M12806 10933 c-6 -14 -5 -15 5 -6 7 7 10 15 7 18 -3 3 -9 -2 -12 -12z"/>
<path d="M7372 10910 c0 -19 2 -27 5 -17 2 9 2 25 0 35 -3 9 -5 1 -5 -18z"/>
<path d="M17487 10903 c-24 -27 -101 -219 -142 -353 -9 -30 -21 -68 -26 -84
-18 -59 -1 -34 27 40 28 75 29 75 39 45 5 -17 16 -36 22 -42 10 -10 10 -5 1
22 -6 19 -15 42 -19 51 -12 24 -11 31 2 22 7 -4 10 1 7 12 -5 24 69 100 105
109 15 4 27 14 27 24 1 14 2 14 14 -1 21 -29 28 -21 22 25 l-6 42 15 -30 c8
-16 14 -35 15 -41 0 -7 12 -19 26 -29 14 -9 35 -26 47 -38 12 -12 22 -16 24
-10 3 9 -47 139 -87 226 -13 26 -40 38 -40 17 0 -5 -7 -10 -15 -10 -8 0 -15 5
-15 10 0 16 -26 12 -43 -7z"/>
<path d="M14932 10840 c0 -19 2 -27 5 -17 2 9 2 25 0 35 -3 9 -5 1 -5 -18z"/>
<path d="M12353 10825 c0 -22 2 -30 4 -17 2 12 2 30 0 40 -3 9 -5 -1 -4 -23z"/>
<path d="M17349 10846 c-2 -24 -4 -30 -12 -43 -4 -6 -3 -14 3 -18 5 -3 10 -5
10 -3 0 2 4 18 9 35 6 20 6 35 0 38 -5 4 -10 -1 -10 -9z"/>
<path d="M12311 10788 c-1 -15 -6 -30 -11 -33 -6 -4 -8 -11 -5 -16 8 -12 52
-12 60 1 3 6 -2 10 -12 10 -15 0 -16 2 -3 10 11 7 11 10 2 10 -7 0 -17 10 -22
23 -8 21 -9 21 -9 -5z"/>
<path d="M7199 10783 c-13 -16 -12 -17 4 -4 16 13 21 21 13 21 -2 0 -10 -8
-17 -17z"/>
<path d="M9561 10785 c-2 -21 30 -138 49 -184 11 -25 30 -52 40 -59 20 -12 20
-12 5 24 -19 46 -19 53 1 28 14 -18 15 -18 8 6 -4 14 -10 27 -15 30 -4 3 -15
39 -25 80 -17 72 -18 74 -29 47 l-12 -29 -10 34 c-6 18 -11 29 -12 23z"/>
<path d="M17333 10687 c-42 -106 -58 -156 -44 -141 11 11 93 235 88 240 -2 2
-22 -43 -44 -99z"/>
<path d="M17323 10768 c4 -10 3 -18 -1 -18 -13 0 -43 -93 -34 -102 5 -5 15 12
22 39 7 26 18 54 23 61 7 9 6 17 -3 25 -10 10 -12 9 -7 -5z"/>
<path d="M11506 10737 c3 -10 9 -15 12 -12 3 3 0 11 -7 18 -10 9 -11 8 -5 -6z"/>
<path d="M7116 10728 c3 -4 11 -5 19 -1 21 7 19 12 -4 10 -11 0 -18 -5 -15 -9z"/>
<path d="M7060 10700 c-19 -16 -30 -30 -25 -30 10 0 65 47 65 55 0 8 -3 6 -40
-25z"/>
<path d="M15679 10696 c-140 -60 -228 -140 -293 -266 -32 -63 -33 -66 -15 -82
18 -17 20 -15 50 45 18 34 45 82 62 107 26 38 27 42 7 25 l-23 -20 11 20 c22
42 111 113 185 149 42 20 81 36 86 36 5 0 13 5 16 10 9 15 -2 12 -86 -24z"/>
<path d="M5670 10658 c-52 -27 -82 -46 -67 -43 39 8 152 62 167 80 18 22 5 17
-100 -37z"/>
<path d="M15286 10695 c-3 -9 -7 -31 -7 -48 -1 -24 -3 -26 -6 -9 -5 24 -18 29
-29 11 -4 -7 -62 -10 -178 -8 -94 2 -177 0 -184 -5 -18 -11 -15 -24 8 -31 11
-3 28 -14 37 -23 14 -14 16 -14 11 -2 -5 14 16 16 163 18 l168 3 7 -28 c17
-71 55 -107 69 -65 10 33 -14 166 -34 185 -17 17 -19 17 -25 2z"/>
<path d="M7814 10678 c3 -13 6 -30 6 -39 0 -11 13 -18 41 -23 23 -4 55 -16 70
-27 37 -26 37 -14 2 24 l-28 30 29 -19 c28 -18 106 -126 106 -147 0 -11 237
-610 335 -847 42 -101 65 -171 66 -200 1 -25 4 -49 7 -54 9 -16 21 18 17 49
-3 18 0 14 7 -11 10 -40 7 -48 -42 -160 -71 -161 -93 -196 -159 -255 -82 -73
-144 -101 -217 -97 l-59 3 -7 44 c-4 25 -11 48 -16 53 -9 9 -38 -96 -33 -119
1 -7 -3 -13 -9 -13 -18 0 -11 -28 12 -44 25 -18 110 -21 171 -7 95 22 203 130
278 279 18 34 34 62 36 62 2 0 1 -4 -2 -10 -3 -5 -1 -10 5 -10 6 0 8 10 4 26
-4 16 -3 25 2 21 6 -3 10 2 11 11 2 34 86 262 94 256 5 -3 6 2 3 10 -3 8 13
57 36 108 59 132 214 521 266 667 62 177 107 280 122 281 6 0 12 9 12 21 0 11
4 17 10 14 5 -3 8 0 5 7 -6 14 47 78 64 78 6 0 -1 -16 -14 -37 -14 -20 -23
-39 -19 -42 7 -7 104 93 104 108 0 17 -40 13 -87 -9 -67 -30 -120 -87 -128
-138 -9 -54 -77 -244 -207 -575 -95 -241 -104 -261 -149 -304 -36 -35 -50 -56
-55 -87 -7 -39 -7 -40 -17 -16 -6 14 -26 59 -45 100 -32 68 -158 372 -268 644
-62 154 -120 274 -151 314 -28 38 -92 71 -136 72 -15 0 -30 7 -33 15 -4 8 -15
15 -26 15 -16 0 -19 -5 -14 -22z m342 -393 c10 -41 -1 -53 -19 -19 -15 30 -14
44 4 44 5 0 11 -11 15 -25z"/>
<path d="M6090 10683 c-41 -15 -112 -69 -151 -116 l-44 -52 75 68 c41 37 79
67 85 67 5 0 21 9 35 20 26 20 26 22 0 13z"/>
<path d="M6766 10675 c-3 -8 -8 -239 -12 -513 -6 -444 -5 -501 9 -532 15 -33
16 3 14 512 -1 302 -3 548 -3 548 -1 0 -4 -7 -8 -15z"/>
<path d="M15825 10676 c-65 -20 -98 -42 -148 -93 -105 -108 -140 -220 -141
-458 0 -154 1 -163 31 -255 47 -138 121 -247 185 -269 29 -10 30 -10 16 6 -28
33 -32 49 -8 28 13 -11 2 7 -25 40 -26 32 -63 91 -81 129 -19 39 -34 62 -35
51 -1 -30 -37 78 -44 132 -3 27 -8 59 -11 74 -3 16 2 33 16 49 13 15 20 18 21
9 1 -8 4 -1 8 16 3 17 16 34 30 41 l24 12 -24 4 c-13 2 91 3 231 2 140 -1 264
-5 275 -9 16 -6 17 -5 5 4 -11 8 -2 10 40 6 182 -15 230 -15 237 1 3 8 1 25
-5 37 -11 23 -22 89 -27 165 -3 43 -28 90 -89 165 -40 49 -124 103 -137 90 -7
-7 1 -18 26 -33 50 -31 109 -109 135 -177 24 -63 38 -163 24 -164 -5 0 -32 -2
-60 -3 -34 -2 -61 -10 -82 -26 -30 -22 -42 -23 -289 -31 -142 -5 -280 -5 -306
-2 -45 5 -48 8 -45 32 2 14 9 25 16 24 6 -2 12 5 13 15 0 9 3 26 5 37 3 11 6
35 6 53 1 17 5 32 9 32 4 0 5 10 1 22 -4 16 -2 19 8 13 8 -5 11 -4 7 3 -10 14
2 42 18 42 7 0 15 7 19 15 3 8 9 14 13 13 5 -2 29 14 54 34 135 111 248 102
330 -24 30 -47 45 -62 64 -63 21 0 24 3 19 20 -17 57 -115 164 -151 166 -11 0
-13 3 -5 6 21 8 97 -43 126 -86 33 -47 75 -147 76 -178 0 -12 5 -25 11 -29 18
-11 6 135 -15 178 -20 41 -108 122 -151 138 -36 14 -171 11 -220 -4z m133 -13
c-16 -2 -40 -2 -55 0 -16 2 -3 4 27 4 30 0 43 -2 28 -4z m325 -460 c-18 -2
-48 -2 -65 0 -18 2 -4 4 32 4 36 0 50 -2 33 -4z m80 0 c-7 -2 -21 -2 -30 0
-10 3 -4 5 12 5 17 0 24 -2 18 -5z"/>
<path d="M4579 10667 c-106 -30 -195 -109 -249 -221 -16 -34 -38 -67 -49 -74
-25 -15 -27 -37 -5 -46 27 -10 74 -7 74 6 0 6 3 9 6 5 11 -10 41 26 69 83 15
30 43 74 61 97 44 54 140 102 209 105 l50 1 -30 14 -30 14 30 -6 c53 -11 115
-55 146 -103 16 -25 29 -51 29 -58 0 -7 5 -14 10 -16 30 -10 64 -222 47 -290
-6 -24 -70 -63 -87 -53 -5 3 -11 1 -15 -5 -11 -17 22 -11 81 15 l57 25 -5 138
c-6 152 -23 214 -79 290 -45 61 -97 85 -194 89 -45 1 -100 -3 -126 -10z m-149
-124 c-49 -56 -76 -104 -85 -156 -9 -45 -25 -59 -25 -20 1 45 35 109 91 168
64 68 76 72 19 8z"/>
<path d="M6262 10644 c-17 -20 -33 -48 -36 -63 -11 -50 -18 -53 -67 -32 -24
12 -60 21 -79 21 -57 0 -135 -44 -198 -110 -32 -33 -65 -60 -74 -60 -9 0 -19
-8 -23 -17 -9 -22 -16 -627 -8 -700 3 -30 11 -54 19 -57 11 -4 13 47 11 312
-2 354 3 395 63 462 29 32 30 32 12 5 -24 -37 -42 -90 -42 -122 0 -23 0 -24
23 -6 21 15 30 37 53 125 8 27 70 76 111 87 58 16 93 13 151 -14 l53 -24 9 25
c6 14 15 47 22 72 6 26 19 66 29 90 22 51 10 54 -29 6z"/>
<path d="M8348 10664 c-74 -23 -106 -84 -78 -149 7 -17 9 -14 9 13 1 51 28 98
66 116 18 9 38 16 43 16 6 0 14 5 17 10 8 13 1 12 -57 -6z"/>
<path d="M8818 10650 c37 -23 72 -75 72 -107 0 -13 5 -23 10 -23 14 0 12 35
-4 74 -18 44 -54 76 -85 76 -26 0 -25 0 7 -20z"/>
<path d="M13250 10655 c-11 -13 -43 -15 -194 -15 -202 2 -206 0 -206 -71 l0
-36 36 34 c33 31 41 34 93 32 31 -1 108 -1 172 -1 l116 2 1 35 c2 39 0 41 -18
20z"/>
<path d="M13738 10655 c-123 -34 -215 -125 -257 -256 -9 -29 -18 -38 -43 -43
-37 -7 -28 -22 18 -32 29 -5 31 -3 43 37 12 41 56 119 67 119 3 0 2 -6 -2 -12
-5 -7 18 15 50 49 31 34 66 65 77 68 11 4 16 11 13 17 -5 7 -1 9 8 5 9 -3 42
0 74 8 63 14 105 5 147 -33 25 -21 62 -79 72 -112 8 -26 35 -58 35 -41 0 6
-11 35 -25 66 -13 31 -20 53 -15 50 21 -13 8 7 -27 41 l-38 37 35 -25 c45 -32
96 -116 111 -184 11 -49 28 -73 30 -41 0 6 3 29 5 51 12 96 -53 199 -144 230
-54 19 -168 19 -234 1z"/>
<path d="M7746 10653 c-4 -5 -93 -10 -198 -13 l-190 -5 -4 -415 c-5 -438 -1
-517 23 -547 13 -16 14 -15 9 17 -8 53 -9 872 -1 892 8 19 32 31 47 22 6 -4
49 -6 97 -4 47 1 121 2 164 3 56 1 77 4 77 14 0 7 -5 13 -11 13 -6 0 -9 7 -5
15 6 16 3 19 -8 8z"/>
<path d="M12604 10644 c-34 -7 -77 -20 -95 -29 l-33 -18 38 -15 c38 -15 74
-12 136 13 11 4 19 -5 29 -30 15 -42 18 -42 26 5 3 19 8 36 10 39 8 8 -15 39
-32 43 -10 3 -46 -1 -79 -8z m-41 -51 c-7 -2 -19 -2 -25 0 -7 3 -2 5 12 5 14
0 19 -2 13 -5z m50 0 c-7 -2 -19 -2 -25 0 -7 3 -2 5 12 5 14 0 19 -2 13 -5z"/>
<path d="M17654 10629 c3 -17 6 -35 6 -40 0 -5 7 -9 15 -9 18 0 19 2 1 45 -19
43 -31 45 -22 4z"/>
<path d="M7063 10640 c-23 -5 -51 -13 -61 -19 -11 -6 -22 -7 -26 -4 -3 3 -6 1
-6 -5 0 -7 33 -12 90 -14 79 -3 91 -1 96 15 3 9 13 17 22 17 15 0 15 2 2 10
-18 11 -58 11 -117 0z"/>
<path d="M14166 10599 c75 -80 94 -139 94 -289 0 -106 2 -119 16 -113 14 5 16
22 10 137 -5 97 -4 127 4 116 9 -12 10 -10 4 10 -8 30 -23 59 -24 45 0 -5 -16
13 -35 42 -31 46 -60 73 -105 98 -8 5 8 -16 36 -46z"/>
<path d="M14575 10638 c-16 -6 -39 -17 -50 -24 -18 -13 -17 -14 13 -15 54 -3
57 -4 67 -17 11 -14 45 -7 45 9 0 5 6 9 14 9 7 0 16 -15 20 -32 l7 -33 19 25
c24 30 26 76 4 84 -24 9 -106 6 -139 -6z"/>
<path d="M5939 10603 l-34 -38 38 34 c20 19 37 36 37 38 0 8 -8 0 -41 -34z"/>
<path d="M6326 10625 c-3 -9 -10 -13 -16 -10 -6 4 -7 -1 -3 -11 4 -10 2 -15
-3 -11 -5 3 -18 -25 -28 -61 -11 -37 -23 -73 -29 -79 -6 -9 -6 -13 2 -13 6 0
11 5 11 11 0 5 4 8 10 4 12 -7 41 91 33 112 -4 10 -2 14 4 10 7 -4 16 6 22 25
11 32 9 53 -3 23z"/>
<path d="M13494 10576 c-43 -41 -65 -70 -62 -82 6 -34 23 -23 56 36 18 33 45
71 60 85 15 14 23 25 19 25 -4 0 -37 -29 -73 -64z"/>
<path d="M14205 10598 c22 -24 45 -53 52 -64 6 -10 12 -14 12 -8 1 18 -56 92
-81 105 -16 9 -12 -1 17 -33z"/>
<path d="M5550 10609 c0 -5 5 -7 10 -4 6 3 10 8 10 11 0 2 -4 4 -10 4 -5 0
-10 -5 -10 -11z"/>
<path d="M7191 10605 c-1 -11 -2 -233 -3 -493 -2 -360 -6 -475 -15 -480 -18
-11 2 -75 38 -129 60 -87 145 -133 243 -133 55 0 195 34 211 52 7 8 5 9 -8 5
-11 -4 -16 -3 -12 3 3 6 16 8 28 5 28 -7 130 61 135 90 3 15 -11 6 -49 -30
-29 -27 -45 -40 -35 -28 10 12 15 27 10 34 -4 8 -3 10 5 5 15 -10 38 9 58 48
l16 30 -29 -18 c-16 -10 -40 -29 -54 -42 -34 -32 -111 -64 -168 -71 -77 -9
-123 10 -179 72 -26 30 -49 60 -49 65 -1 6 -2 17 -3 26 0 8 -5 12 -11 9 -6 -4
-10 8 -10 29 0 25 -4 36 -15 36 -8 0 -15 -5 -15 -11 0 -5 5 -7 10 -4 6 3 10 1
10 -4 0 -6 -6 -11 -14 -11 -8 0 -17 -6 -19 -12 -4 -9 -6 -8 -6 3 -1 8 -10 25
-20 36 -19 20 -20 44 -27 459 -3 242 -10 448 -15 459 l-8 20 0 -20z m56 -957
c-3 -8 -6 -5 -6 6 -1 11 2 17 5 13 3 -3 4 -12 1 -19z"/>
<path d="M11353 10598 c-4 -41 47 -126 107 -180 59 -54 107 -81 282 -159 104
-46 124 -61 40 -29 -29 11 -52 17 -52 14 0 -7 88 -46 114 -49 21 -2 97 -35
106 -46 3 -3 13 -8 23 -12 10 -4 15 -11 12 -17 -3 -5 0 -7 9 -4 9 4 40 -19 84
-63 74 -73 120 -153 129 -223 6 -46 15 -43 32 11 24 74 -33 207 -117 277 -58
48 -166 109 -345 195 -174 84 -299 169 -352 239 -56 74 -70 83 -72 46z m37
-58 c6 -11 8 -20 6 -20 -3 0 -10 9 -16 20 -6 11 -8 20 -6 20 3 0 10 -9 16 -20z
m170 -172 c0 -6 -6 -5 -15 2 -8 7 -15 14 -15 16 0 2 7 1 15 -2 8 -4 15 -11 15
-16z"/>
<path d="M5478 10603 c12 -2 32 -2 45 0 12 2 2 4 -23 4 -25 0 -35 -2 -22 -4z"/>
<path d="M6426 10585 c3 -8 14 -17 23 -20 27 -8 77 -76 86 -115 4 -19 14 -45
22 -57 12 -18 14 -89 11 -435 -3 -374 -5 -415 -21 -439 -9 -14 -15 -28 -12
-31 7 -7 -16 -25 -58 -46 -28 -13 -34 -21 -27 -32 7 -12 42 -16 176 -19 171
-3 298 5 289 18 -2 5 -20 11 -39 14 -48 8 -136 74 -153 115 -16 38 -30 56 -53
65 -10 3 -7 6 8 6 21 1 33 21 12 21 -14 0 -12 37 3 43 7 3 4 6 -6 6 -10 1 -15
6 -12 11 4 6 10 8 15 5 4 -3 3 6 -3 19 -7 13 -16 22 -22 18 -6 -4 -6 -1 0 9
12 16 20 79 8 64 -4 -5 -17 -15 -28 -21 -14 -8 -19 -21 -19 -47 0 -21 -4 -37
-8 -37 -4 0 -7 10 -7 23 0 12 -2 130 -5 262 -12 473 -13 483 -71 559 -34 44
-123 78 -109 41z m204 -904 c-19 -5 -21 -8 -9 -13 9 -4 15 -16 13 -30 -1 -12
-3 -34 -4 -48 l-2 -25 -8 25 c-7 23 -8 23 -9 3 -1 -12 -6 -25 -11 -28 -8 -5
-9 11 -5 47 9 73 11 78 37 77 22 -1 22 -1 -2 -8z m-62 -171 c-7 -10 -14 -17
-17 -15 -4 4 18 35 25 35 2 0 -1 -9 -8 -20z m-65 -97 c-7 -2 -21 -2 -30 0 -10
3 -4 5 12 5 17 0 24 -2 18 -5z m50 0 c-7 -2 -19 -2 -25 0 -7 3 -2 5 12 5 14 0
19 -2 13 -5z"/>
<path d="M4357 10550 c-19 -22 -39 -40 -45 -40 -6 0 -9 -6 -6 -13 2 -7 -2 -32
-11 -56 -23 -67 -17 -63 19 14 18 39 45 85 60 103 15 17 25 32 23 32 -3 0 -21
-18 -40 -40z"/>
<path d="M5440 10580 c13 -8 13 -10 -2 -10 -26 0 -12 -26 22 -40 34 -14 65
-47 75 -80 4 -14 11 -68 15 -120 l8 -95 -2 123 c-2 78 1 122 7 122 6 0 8 -3 5
-6 -3 -3 3 -36 13 -73 18 -63 19 -97 16 -447 -4 -410 -4 -408 -61 -474 -17
-19 -24 -29 -16 -22 7 6 19 12 24 12 10 -1 -22 -24 -34 -25 -3 0 -18 -8 -35
-17 l-30 -16 25 -10 c41 -15 433 -21 467 -7 30 13 26 17 -32 30 -51 11 -134
82 -155 131 -18 42 -28 152 -32 377 0 36 -4 53 -9 45 -6 -9 -9 -9 -9 -1 0 6 4
14 10 18 5 3 7 12 3 21 -9 23 -36 -21 -28 -46 4 -11 2 -20 -3 -20 -5 0 -10 -6
-9 -12 2 -64 -5 -128 -13 -123 -5 3 -10 0 -10 -7 0 -9 -2 -10 -8 -1 -4 6 -8
132 -10 280 -2 147 -8 296 -13 331 -12 77 -45 133 -92 155 -38 19 -114 24 -87
7z m70 -45 c46 -47 35 -49 -13 -2 -21 20 -34 37 -30 37 5 0 24 -16 43 -35z"/>
<path d="M5857 10555 c-4 -25 -4 -25 14 -9 22 20 24 34 5 34 -7 0 -16 -11 -19
-25z"/>
<path d="M5135 10540 c9 -17 22 -30 31 -30 13 0 12 4 -3 25 -28 37 -47 41 -28
5z"/>
<path d="M14010 10539 c0 -4 7 -20 15 -35 8 -16 15 -22 15 -13 0 14 -29 61
-30 48z"/>
<path d="M17697 10496 c-15 -27 -27 -52 -27 -57 0 -5 -7 -6 -15 -3 -20 8 -20
9 29 -141 25 -76 48 -129 54 -127 15 3 15 -9 -1 -29 -10 -14 -40 -18 -158 -23
-138 -7 -146 -6 -172 14 -33 26 -36 47 -4 26 21 -15 22 -14 23 22 0 20 15 88
34 150 l34 113 -29 23 -29 24 -18 -37 c-31 -61 -45 -82 -54 -81 -5 0 -10 -8
-12 -20 -2 -11 -8 -20 -14 -20 -7 0 -9 17 -5 47 l5 48 -28 -60 c-15 -33 -30
-67 -34 -75 -8 -19 1 31 11 57 3 10 4 16 0 13 -6 -6 -97 -247 -97 -259 0 -4
137 -9 304 -10 299 -2 304 -2 311 18 7 24 23 27 31 7 4 -12 11 -13 29 -4 l24
11 -26 66 c-14 36 -40 107 -58 156 -36 100 -56 147 -66 155 -4 3 -8 14 -11 25
-3 16 -9 10 -31 -29z m-436 -249 c-10 -9 -11 -8 -5 6 3 10 9 15 12 12 3 -3 0
-11 -7 -18z m-8 -32 c-3 -9 -8 -14 -10 -11 -3 3 -2 9 2 15 9 16 15 13 8 -4z"/>
<path d="M5830 10509 c0 -5 5 -7 10 -4 6 3 10 8 10 11 0 2 -4 4 -10 4 -5 0
-10 -5 -10 -11z"/>
<path d="M17616 10415 c11 -45 43 -122 43 -105 1 19 -33 117 -43 128 -4 4 -4
-7 0 -23z"/>
<path d="M15455 10419 c-4 -6 -5 -12 -2 -15 2 -3 7 2 10 11 7 17 1 20 -8 4z"/>
<path d="M9780 10376 c0 -17 16 -30 23 -19 3 5 -1 14 -9 21 -12 10 -14 10 -14
-2z"/>
<path d="M15350 10339 c0 -5 5 -7 10 -4 6 3 10 8 10 11 0 2 -4 4 -10 4 -5 0
-10 -5 -10 -11z"/>
<path d="M17153 10283 c-4 -10 -13 -24 -20 -31 -17 -18 -16 -31 2 -38 8 -4 15
-11 15 -16 0 -6 -7 -5 -16 3 -13 10 -17 10 -24 -1 -4 -7 -6 -19 -3 -27 3 -7
-1 -13 -8 -13 -7 0 -9 -3 -6 -6 4 -4 0 -19 -8 -33 -14 -27 -65 -162 -69 -184
-1 -6 -8 -23 -15 -37 -14 -24 -13 -25 6 -7 11 9 23 14 27 10 4 -5 6 -1 4 7 -1
8 -7 18 -13 22 -6 5 -6 8 2 8 6 0 15 -4 18 -10 3 -5 11 -10 17 -10 6 0 5 7 -3
17 -8 9 -9 14 -3 10 6 -3 16 5 23 19 9 20 9 24 -1 18 -7 -4 -5 2 5 13 9 11 17
32 17 46 0 15 5 27 10 27 6 0 10 4 10 10 0 5 -7 6 -17 3 -11 -4 -14 -3 -9 5 4
7 2 12 -6 12 -9 0 -9 3 -2 8 6 4 14 14 17 22 4 10 6 8 6 -7 1 -13 6 -23 12
-23 5 0 7 4 4 10 -3 5 -1 19 5 30 9 16 8 25 -2 37 -12 15 -11 15 12 3 14 -7
22 -9 18 -5 -4 4 -2 18 3 32 8 22 7 24 -7 19 -13 -5 -14 -3 -7 6 10 13 23 68
16 68 -2 0 -7 -8 -10 -17z m-23 -123 c0 -5 -5 -10 -11 -10 -5 0 -7 5 -4 10 3
6 8 10 11 10 2 0 4 -4 4 -10z"/>
<path d="M16130 10280 c12 -8 12 -10 1 -10 -8 0 -12 -2 -9 -5 7 -8 38 5 38 16
0 5 -10 9 -22 9 -19 0 -20 -2 -8 -10z"/>
<path d="M12295 10223 c26 -32 43 -59 37 -61 -12 -4 -4 -42 9 -42 5 0 8 -3 7
-7 -1 -5 4 -41 11 -81 35 -198 -81 -449 -257 -556 -84 -51 -160 -70 -277 -70
-155 -1 -297 42 -448 135 -55 33 -73 27 -61 -21 6 -28 16 -35 94 -69 143 -62
413 -99 525 -73 31 7 15 8 -70 6 l-110 -3 100 8 c55 5 119 14 141 20 23 6 49
8 58 5 9 -3 16 -1 16 6 0 6 4 8 10 5 5 -3 35 6 67 21 77 37 161 123 206 213
l36 71 -3 153 c-3 144 -6 162 -41 262 -7 20 -6 20 9 1 9 -11 16 -15 16 -10 0
11 -107 144 -116 144 -3 0 16 -26 41 -57z m-880 -753 c33 -17 49 -28 35 -24
-29 8 -120 52 -120 59 0 6 14 0 85 -35z m92 -36 c-3 -3 -12 -4 -19 -1 -8 3 -5
6 6 6 11 1 17 -2 13 -5z m168 -34 c3 -5 2 -10 -4 -10 -5 0 -13 5 -16 10 -3 6
-2 10 4 10 5 0 13 -4 16 -10z m72 -16 c-3 -3 -12 -4 -19 -1 -8 3 -5 6 6 6 11
1 17 -2 13 -5z"/>
<path d="M18708 10088 c-3 -220 1 -400 7 -407 3 -2 5 129 5 292 0 164 -2 297
-5 297 -3 0 -6 -82 -7 -182z"/>
<path d="M18916 10243 c9 -38 14 -42 14 -10 0 14 -5 29 -10 32 -7 4 -8 -3 -4
-22z"/>
<path d="M18942 10205 c0 -16 2 -22 5 -12 2 9 2 23 0 30 -3 6 -5 -1 -5 -18z"/>
<path d="M5130 10200 c-5 -35 -11 -474 -6 -493 7 -28 22 -37 24 -14 6 78 1
468 -7 487 -5 14 -10 23 -11 20z"/>
<path d="M9757 10092 c-25 -101 -54 -298 -45 -307 2 -2 21 88 41 202 21 113
36 207 34 209 -2 2 -16 -45 -30 -104z"/>
<path d="M3920 10159 c0 -5 5 -7 10 -4 6 3 10 8 10 11 0 2 -4 4 -10 4 -5 0
-10 -5 -10 -11z"/>
<path d="M3928 10119 c-10 -33 -11 -447 -3 -482 17 -65 25 -15 24 146 -2 217
-11 372 -21 336z"/>
<path d="M3979 9943 c-3 -164 3 -389 9 -335 1 7 10 21 19 30 16 16 16 16 11 0
-4 -10 -1 -19 8 -22 12 -5 14 22 14 173 0 185 -9 297 -20 252 -5 -23 -6 -23
-20 -5 -13 16 -13 17 0 9 12 -7 13 -6 3 6 -6 8 -13 32 -15 54 -2 22 -6 -51 -9
-162z"/>
<path d="M4795 10066 c-77 -29 -156 -60 -175 -70 -45 -24 -143 -88 -151 -99
-3 -4 -12 -7 -19 -5 -7 2 -19 -7 -25 -19 -7 -13 -15 -20 -18 -16 -4 3 -12 -8
-18 -25 -6 -18 -15 -29 -21 -26 -5 3 -8 0 -7 -7 4 -23 -32 -99 -47 -99 -8 0
-11 -7 -8 -17 5 -15 4 -16 -5 -3 -6 8 -11 29 -11 47 0 65 45 132 132 200 33
25 57 47 54 50 -10 10 -112 -54 -157 -99 -45 -45 -47 -48 -54 -125 -4 -43 -11
-100 -16 -126 -8 -42 -6 -54 15 -95 32 -62 90 -117 146 -138 97 -35 282 -15
371 42 22 13 39 20 39 16 0 -5 -12 -14 -26 -21 -15 -6 -24 -14 -21 -17 7 -7
71 21 107 46 15 11 32 20 37 20 5 0 27 -16 49 -36 66 -59 88 -67 176 -61 53 3
89 12 113 26 19 11 35 18 35 16 0 -3 -15 -14 -32 -25 -48 -29 -6 -26 52 4 46
23 90 75 90 106 0 27 -49 32 -82 9 -45 -32 -98 -51 -127 -44 -28 6 -95 64 -94
81 1 5 -2 14 -7 19 -5 6 -10 93 -12 195 -3 177 -8 210 -35 210 -14 0 -34 -40
-27 -52 5 -7 3 -8 -5 -3 -9 5 -12 0 -9 -21 1 -15 -2 -29 -8 -31 -8 -3 -12 29
-13 109 -1 93 -5 115 -18 126 -9 6 -19 12 -22 11 -3 0 -69 -24 -146 -53z m135
-25 c6 -12 10 -93 10 -195 0 -168 -1 -176 -23 -198 -86 -88 -87 -106 -1 -25
30 28 46 37 57 31 14 -8 14 -11 0 -29 -16 -20 -16 -20 -9 0 6 17 3 16 -21 -6
-86 -78 -210 -147 -282 -156 -102 -12 -216 59 -242 149 -19 66 -16 202 4 223
20 19 22 13 6 -17 -6 -11 -7 -18 -2 -15 5 3 10 -13 10 -35 1 -27 9 -49 23 -62
l20 -20 0 25 c0 14 5 52 12 85 10 50 19 66 62 109 28 28 72 61 98 73 67 31 74
27 11 -6 -64 -33 -131 -96 -149 -139 -16 -37 -18 -83 -5 -83 5 0 16 -3 24 -6
11 -4 19 9 32 53 23 81 83 136 216 202 56 28 106 48 110 45 5 -3 9 0 9 5 0 18
19 12 30 -8z m68 -337 c-2 -19 0 -34 4 -34 4 0 8 -7 8 -16 0 -13 -2 -13 -13
-2 -8 9 -11 31 -8 68 2 30 6 47 9 36 2 -10 2 -34 0 -52z m6 -90 c3 -8 2 -12
-4 -9 -6 3 -10 10 -10 16 0 14 7 11 14 -7z m336 -147 c0 -2 -10 -12 -22 -23
l-23 -19 19 23 c18 21 26 27 26 19z"/>
<path d="M4520 9648 c0 -21 37 -76 62 -91 13 -8 39 -18 58 -21 31 -5 32 -5 10
4 -36 16 -59 40 -81 83 -19 35 -49 51 -49 25z"/>
<path d="M4760 10097 c-40 -15 -79 -36 -67 -37 5 0 23 6 40 14 18 7 43 18 57
24 35 15 12 14 -30 -1z"/>
<path d="M13965 10067 c-243 -87 -314 -133 -369 -242 -27 -54 -31 -138 -8
-165 7 -8 27 -37 45 -65 23 -36 39 -50 56 -51 25 -1 25 -1 -6 27 -71 63 -82
141 -33 236 34 67 69 107 126 146 43 29 83 39 48 12 -16 -13 -16 -14 -1 -9 10
4 22 15 27 25 6 10 16 16 24 13 7 -3 20 1 27 9 25 24 57 37 94 37 19 0 47 7
61 16 13 9 26 15 28 13 3 -4 12 -124 18 -239 1 -25 5 18 9 95 3 77 8 149 10
160 6 32 -25 28 -156 -18z"/>
<path d="M17976 10065 c-9 -26 -7 -32 5 -12 6 10 9 21 6 23 -2 3 -7 -2 -11
-11z"/>
<path d="M5691 10054 c0 -11 3 -14 6 -6 3 7 2 16 -1 19 -3 4 -6 -2 -5 -13z"/>
<path d="M17458 10063 c7 -3 16 -2 19 1 4 3 -2 6 -13 5 -11 0 -14 -3 -6 -6z"/>
<path d="M15365 10012 c-3 -17 -1 -68 5 -114 20 -146 84 -271 189 -370 34 -32
61 -62 58 -64 -3 -3 -37 26 -76 64 -39 38 -71 66 -71 63 0 -4 14 -20 30 -36
17 -16 30 -33 30 -39 0 -15 -43 29 -80 82 -30 43 -31 45 -7 23 35 -32 34 -25
-8 45 -19 31 -49 96 -67 143 -30 79 -32 83 -40 55 -10 -37 4 -89 52 -189 44
-93 99 -160 160 -194 24 -13 40 -19 36 -12 -10 15 7 14 22 -1 7 -7 20 -13 30
-13 9 0 16 -6 14 -13 -1 -8 1 -11 6 -8 5 3 44 -7 88 -21 67 -22 98 -26 199
-27 101 -1 131 3 187 22 81 28 194 106 235 161 16 22 34 37 38 33 5 -4 5 -1 0
7 -5 9 0 20 15 31 15 12 23 30 26 58 2 23 2 42 -1 42 -2 0 -24 -30 -48 -67
-54 -83 -73 -101 -157 -147 -96 -52 -175 -69 -290 -63 -52 2 -108 10 -125 17
l-30 12 28 12 28 12 -23 11 c-13 6 -44 26 -69 46 l-47 35 -22 -21 -23 -22 16
24 c16 23 15 26 -13 53 -17 15 -30 32 -30 37 0 5 -8 15 -17 22 -11 10 -14 10
-9 2 4 -8 2 -13 -5 -13 -6 0 -9 8 -6 20 3 11 1 20 -5 20 -6 0 -8 -11 -6 -24 7
-34 -20 -43 -28 -10 -5 18 -10 22 -17 15 -17 -17 -54 36 -84 119 -14 41 -29
80 -33 85 -4 6 -13 33 -20 60 -17 64 -26 74 -35 37z m250 -349 c10 -14 10 -20
-2 -31 -12 -13 -16 -12 -28 4 -9 13 -10 23 -3 31 14 17 18 16 33 -4z m91 -90
c-10 -10 -19 5 -10 18 6 11 8 11 12 0 2 -7 1 -15 -2 -18z m24 -48 c0 -8 -2
-15 -4 -15 -2 0 -6 7 -10 15 -3 8 -1 15 4 15 6 0 10 -7 10 -15z m-170 -30 c7
-8 8 -15 2 -15 -5 0 -15 7 -22 15 -7 8 -8 15 -2 15 5 0 15 -7 22 -15z"/>
<path d="M15590 9650 c0 -5 5 -10 11 -10 5 0 7 5 4 10 -3 6 -8 10 -11 10 -2 0
-4 -4 -4 -10z"/>
<path d="M5047 10010 c-3 -13 0 -20 9 -20 8 0 14 9 14 20 0 11 -4 20 -9 20 -5
0 -11 -9 -14 -20z"/>
<path d="M2216 9955 c21 -113 89 -239 181 -336 106 -110 209 -160 359 -173 79
-7 57 4 -60 29 -128 27 -225 106 -312 254 -24 41 -55 108 -70 150 -31 84 -39
94 -71 86 -12 -3 -24 1 -27 8 -3 6 -3 -1 0 -18z"/>
<path d="M13514 9951 c-45 -27 -97 -93 -81 -103 8 -5 19 1 32 19 11 15 35 44
54 65 38 43 38 45 -5 19z"/>
<path d="M17990 9935 c0 -8 4 -15 10 -15 5 0 7 7 4 15 -4 8 -8 15 -10 15 -2 0
-4 -7 -4 -15z"/>
<path d="M3376 9875 c-3 -9 -6 -22 -5 -28 0 -7 5 -1 10 12 5 13 8 26 5 28 -2
2 -6 -3 -10 -12z"/>
<path d="M5652 9870 c0 -14 2 -19 5 -12 2 6 2 18 0 25 -3 6 -5 1 -5 -13z"/>
<path d="M13475 9848 c-16 -24 -21 -37 -11 -29 25 21 59 71 48 71 -5 0 -22
-19 -37 -42z"/>
<path d="M16990 9868 c-7 -23 -5 -19 -31 -88 -8 -22 -8 -23 4 -8 8 10 17 14
22 10 4 -4 4 3 0 16 -4 13 -2 29 5 37 7 8 10 20 7 27 -3 7 -6 10 -7 6z"/>
<path d="M6627 9806 c-4 -10 -1 -13 8 -9 8 3 12 9 9 14 -7 12 -11 11 -17 -5z"/>
<path d="M9835 9800 c-3 -5 -3 -10 2 -10 4 0 2 -4 -5 -8 -7 -5 -26 -69 -42
-143 -17 -74 -40 -161 -50 -194 -11 -33 -35 -145 -54 -249 -32 -173 -42 -205
-68 -206 -8 0 -6 23 5 50 3 8 8 33 11 55 2 22 7 54 10 70 3 17 8 50 11 75 3
25 7 57 9 73 3 15 0 25 -4 22 -5 -3 -9 -13 -9 -23 0 -9 -15 -85 -33 -168 -28
-129 -30 -154 -19 -168 12 -14 41 -16 212 -16 126 0 199 4 199 10 0 6 17 11
38 11 25 1 29 3 12 6 -47 7 -129 37 -124 45 3 4 -37 8 -89 8 -81 0 -96 3 -112
20 -15 16 -21 18 -34 8 -9 -7 1 6 21 28 30 31 40 53 52 112 21 98 53 284 62
357 6 59 13 245 8 245 -2 0 -6 -4 -9 -10z"/>
<path d="M14763 9783 c-7 -15 -13 -40 -13 -56 0 -22 -4 -28 -17 -25 -10 2 -17
10 -15 16 1 7 -2 12 -7 12 -28 0 -28 -111 0 -165 45 -86 123 -146 221 -171 78
-20 130 -15 210 23 73 34 173 121 175 152 2 18 -7 14 -52 -28 -66 -59 -132
-84 -223 -83 -65 1 -121 23 -130 51 -3 9 0 11 8 6 9 -5 11 -4 6 4 -4 6 -11 9
-16 6 -5 -3 -11 -1 -15 5 -3 5 -1 10 5 10 6 0 -1 16 -15 35 -15 19 -25 42 -23
51 2 11 14 0 36 -35 19 -28 47 -58 63 -66 33 -18 38 -7 9 20 -10 9 -26 42 -35
71 -9 30 -20 54 -25 54 -6 0 -10 6 -10 14 0 8 -15 30 -34 50 -21 21 -30 37
-23 40 9 3 9 5 0 5 -7 1 -10 8 -7 19 5 15 4 15 -6 2 -9 -11 -13 -12 -17 -2 -8
21 -38 13 -50 -15z"/>
<path d="M8531 9784 c0 -11 3 -14 6 -6 3 7 2 16 -1 19 -3 4 -6 -2 -5 -13z"/>
<path d="M12850 9749 c0 -67 29 -154 62 -188 33 -34 62 -44 33 -11 -10 11 -19
30 -20 44 -5 38 -16 67 -24 62 -4 -3 -8 0 -9 7 -1 7 -5 32 -8 56 -4 25 -13 51
-20 59 -12 11 -14 7 -14 -29z"/>
<path d="M14180 9786 c0 -2 16 -6 35 -8 19 -2 35 0 35 4 0 4 -16 8 -35 8 -19
0 -35 -2 -35 -4z"/>
<path d="M6691 9764 c0 -11 3 -14 6 -6 3 7 2 16 -1 19 -3 4 -6 -2 -5 -13z"/>
<path d="M8578 9773 c7 -3 16 -2 19 1 4 3 -2 6 -13 5 -11 0 -14 -3 -6 -6z"/>
<path d="M3315 9747 c-11 -12 -30 -38 -43 -57 -86 -128 -233 -223 -391 -255
-52 -10 -58 -13 -30 -14 53 -1 178 33 249 69 79 40 176 137 213 213 31 64 32
79 2 44z"/>
<path d="M16282 9680 c-51 -50 -90 -90 -87 -90 8 0 85 40 103 53 33 26 112
108 112 117 0 28 -44 0 -128 -80z"/>
<path d="M16946 9737 c3 -10 9 -15 12 -12 3 3 0 11 -7 18 -10 9 -11 8 -5 -6z"/>
<path d="M12689 9685 c-3 -70 3 -109 22 -146 22 -45 107 -131 120 -123 5 3 8
0 7 -7 -8 -33 150 -38 246 -9 77 24 136 67 188 135 53 70 47 77 -15 18 -65
-62 -95 -78 -171 -92 -58 -11 -70 -10 -156 11 -54 13 -150 79 -150 103 0 9
-53 79 -62 83 -5 2 -8 11 -8 20 0 10 -5 24 -10 32 -7 11 -10 5 -11 -25z"/>
<path d="M14256 9672 c23 -103 77 -164 141 -161 27 2 27 2 3 6 -14 3 -31 10
-38 16 -16 12 -62 108 -62 128 0 8 -11 19 -25 26 -24 11 -25 10 -19 -15z"/>
<path d="M13544 9672 c-6 -4 -13 -17 -16 -29 -5 -19 -3 -21 10 -14 14 7 17 4
18 -16 2 -17 -2 -23 -12 -19 -8 3 -14 -1 -14 -9 0 -28 -18 -15 -45 30 -14 25
-30 43 -35 40 -5 -3 -12 0 -16 6 -9 15 -24 -8 -24 -38 0 -28 -8 -29 -27 -5
-13 15 -14 14 -8 -13 4 -16 8 -40 10 -52 3 -28 24 -55 37 -47 5 3 6 15 3 27
-6 21 -6 22 9 3 18 -22 21 -40 7 -31 -16 9 -23 -15 -9 -32 16 -20 98 -73 112
-73 6 0 -5 14 -24 30 l-35 31 49 -31 c28 -16 57 -30 65 -30 11 0 12 -3 4 -8
-6 -4 27 -9 75 -10 96 -3 184 15 242 50 19 11 56 33 82 49 l46 27 26 -39 c38
-56 102 -85 196 -87 63 -2 84 2 128 24 66 32 132 95 132 125 0 23 0 23 -27 -3
-65 -60 -137 -80 -188 -54 -17 9 -40 16 -52 16 -13 0 -23 5 -23 11 0 5 -4 8
-9 4 -11 -6 -63 41 -80 74 -17 32 -50 26 -111 -20 -97 -73 -145 -92 -242 -97
-60 -3 -98 0 -120 9 -38 15 -60 34 -51 43 4 3 -1 6 -10 6 -9 0 -16 3 -16 8 3
19 -2 33 -10 28 -5 -4 -11 -1 -13 6 -3 7 -11 9 -24 3 -17 -7 -18 -8 -1 -12 9
-3 15 -8 12 -13 -7 -11 -35 -2 -35 10 0 16 33 41 47 36 11 -4 11 -1 3 14 -6
11 -9 24 -6 29 3 5 -1 14 -9 21 -8 7 -12 16 -9 21 6 11 3 11 -12 1z m605 -217
l16 -20 -24 20 c-13 11 -32 37 -42 57 -28 55 -23 60 8 8 14 -25 33 -54 42 -65z
m-44 19 c9 -15 12 -23 6 -20 -11 7 -35 46 -28 46 3 0 12 -12 22 -26z m100 -82
c-3 -3 -11 0 -18 7 -9 10 -8 11 6 5 10 -3 15 -9 12 -12z"/>
<path d="M14642 9658 c-7 -7 -12 -18 -12 -26 0 -25 61 -136 92 -169 41 -42
120 -80 183 -87 l50 -6 -40 14 c-116 40 -193 114 -234 225 -12 33 -23 61 -25
61 -1 0 -7 -5 -14 -12z"/>
<path d="M7430 9644 c0 -5 5 -26 11 -47 8 -29 18 -40 46 -52 46 -19 53 -19 28
3 -11 9 -35 37 -53 61 -17 25 -32 41 -32 35z"/>
<path d="M13340 9638 c0 -7 5 -20 10 -28 8 -12 10 -11 10 7 0 12 -4 25 -10 28
-5 3 -10 0 -10 -7z"/>
<path d="M14002 9614 l-37 -36 33 19 c19 10 38 26 43 36 15 26 2 21 -39 -19z"/>
<path d="M9706 9610 c-3 -19 -10 -64 -15 -100 -6 -36 -12 -81 -15 -100 -6 -35
-6 -35 4 -5 15 45 43 213 37 227 -2 7 -7 -3 -11 -22z"/>
<path d="M12650 9615 c0 -9 9 -33 20 -54 10 -21 17 -41 14 -44 -7 -6 96 -107
109 -107 6 0 -8 19 -32 41 -39 38 -91 126 -91 156 0 6 -4 15 -10 18 -5 3 -10
-1 -10 -10z"/>
<path d="M5200 9571 c0 -14 49 -45 57 -37 12 11 -12 41 -36 44 -11 2 -21 -1
-21 -7z"/>
<path d="M16879 9558 c-13 -11 -49 -34 -79 -51 -60 -35 -78 -67 -38 -67 46 0
124 61 161 126 10 17 -18 12 -44 -8z"/>
<path d="M6887 9533 c-13 -3 -16 -10 -11 -25 5 -17 3 -20 -10 -15 -14 5 -15 3
-6 -12 9 -18 58 -41 88 -41 20 0 41 30 42 57 0 22 -8 26 -70 38 -8 1 -23 0
-33 -2z"/>
<path d="M4005 9520 c4 -6 10 -8 15 -5 5 3 11 1 15 -5 3 -5 2 -10 -4 -10 -6 0
-8 -6 -5 -14 8 -21 70 -48 102 -44 26 3 25 4 -26 46 -31 24 -64 42 -78 42 -15
0 -23 -4 -19 -10z"/>
<path d="M17858 9493 c-29 -38 -29 -53 2 -53 24 0 100 30 100 39 0 13 -24 31
-42 31 -10 0 -18 5 -18 10 0 19 -15 9 -42 -27z"/>
<path d="M5903 9475 c15 -14 36 -25 45 -25 13 1 11 6 -11 25 -15 14 -36 25
-45 25 -13 -1 -11 -6 11 -25z"/>
<path d="M4128 9403 c6 -2 18 -2 25 0 6 3 1 5 -13 5 -14 0 -19 -2 -12 -5z"/>
<path d="M11988 9393 c7 -3 16 -2 19 1 4 3 -2 6 -13 5 -11 0 -14 -3 -6 -6z"/>
<path d="M8411 9106 c-6 -14 -18 -40 -26 -56 -9 -17 -13 -30 -10 -30 8 0 57
102 51 107 -3 3 -10 -6 -15 -21z"/>
<path d="M8281 9063 c-36 -47 -39 -53 -14 -33 23 20 71 90 60 90 -1 0 -22 -26
-46 -57z"/>
</g>
</svg>
